solid OpenSCAD_Model
  facet normal 0.994523 0.104522 0
    outer loop
      vertex 25 25 23
      vertex 24.98 25.1903 13
      vertex 24.98 25.1903 23
    endloop
  endfacet
  facet normal 0.994523 0.104522 0
    outer loop
      vertex 24.98 25.1903 13
      vertex 25 25 23
      vertex 25 25 13
    endloop
  endfacet
  facet normal 0.994526 0.104485 0
    outer loop
      vertex 24.9474 25.5 23
      vertex 24.7815 27.0791 13
      vertex 24.7815 27.0791 23
    endloop
  endfacet
  facet normal 0.994526 0.104485 0
    outer loop
      vertex 24.7815 27.0791 13
      vertex 24.9474 25.5 23
      vertex 24.9474 25.5 13
    endloop
  endfacet
  facet normal -0 -0 1
    outer loop
      vertex 24.98 25.1903 13
      vertex 25 25 13
      vertex 24.7815 27.0791 13
    endloop
  endfacet
  facet normal -0 -0 1
    outer loop
      vertex 24.9474 25.5 13
      vertex 24.98 25.1903 13
      vertex 24.7815 27.0791 13
    endloop
  endfacet
  facet normal -0.866028 0.499995 0
    outer loop
      vertex 5.86455 29.0674 13
      vertex 6.90983 30.8779 23
      vertex 6.90983 30.8779 13
    endloop
  endfacet
  facet normal -0.866028 0.499995 0
    outer loop
      vertex 6.90983 30.8779 23
      vertex 5.86455 29.0674 13
      vertex 5.86455 29.0674 23
    endloop
  endfacet
  facet normal 0.587816 0.808995 -0
    outer loop
      vertex 21.6913 32.4314 13
      vertex 20 33.6603 23
      vertex 21.6913 32.4314 23
    endloop
  endfacet
  facet normal 0.587816 0.808995 0
    outer loop
      vertex 20 33.6603 23
      vertex 21.6913 32.4314 13
      vertex 20 33.6603 13
    endloop
  endfacet
  facet normal 0 0 -1
    outer loop
      vertex 24.98 25 13
      vertex 24.7815 27.0791 13
      vertex 25 25 13
    endloop
  endfacet
  facet normal 0 0 -1
    outer loop
      vertex 20 25 13
      vertex 24.7815 27.0791 13
      vertex 24.98 25 13
    endloop
  endfacet
  facet normal -0 0 -1
    outer loop
      vertex 24.7815 27.0791 13
      vertex 19.6194 26.9134 13
      vertex 24.1355 29.0674 13
    endloop
  endfacet
  facet normal -0 0 -1
    outer loop
      vertex 24.1355 29.0674 13
      vertex 19.6194 26.9134 13
      vertex 23.0902 30.8779 13
    endloop
  endfacet
  facet normal 0 0 -1
    outer loop
      vertex 24.7815 27.0791 13
      vertex 20 25 13
      vertex 19.6194 26.9134 13
    endloop
  endfacet
  facet normal 0 0 -1
    outer loop
      vertex 18.5355 28.5355 13
      vertex 23.0902 30.8779 13
      vertex 19.6194 26.9134 13
    endloop
  endfacet
  facet normal -0 0 -1
    outer loop
      vertex 23.0902 30.8779 13
      vertex 18.5355 28.5355 13
      vertex 21.6913 32.4314 13
    endloop
  endfacet
  facet normal -0 0 -1
    outer loop
      vertex 21.6913 32.4314 13
      vertex 18.5355 28.5355 13
      vertex 20 33.6603 13
    endloop
  endfacet
  facet normal 0 0 -1
    outer loop
      vertex 16.9134 29.6194 13
      vertex 20 33.6603 13
      vertex 18.5355 28.5355 13
    endloop
  endfacet
  facet normal -0 0 -1
    outer loop
      vertex 20 33.6603 13
      vertex 16.9134 29.6194 13
      vertex 18.0902 34.5106 13
    endloop
  endfacet
  facet normal 0 0 -1
    outer loop
      vertex 16.9134 29.6194 13
      vertex 16.0453 34.9452 13
      vertex 18.0902 34.5106 13
    endloop
  endfacet
  facet normal 0 0 -1
    outer loop
      vertex 15 30 13
      vertex 16.0453 34.9452 13
      vertex 16.9134 29.6194 13
    endloop
  endfacet
  facet normal 0 0 -1
    outer loop
      vertex 15 30 13
      vertex 13.9547 34.9452 13
      vertex 16.0453 34.9452 13
    endloop
  endfacet
  facet normal 0 0 -1
    outer loop
      vertex 13.0866 29.6194 13
      vertex 13.9547 34.9452 13
      vertex 15 30 13
    endloop
  endfacet
  facet normal 0 0 -1
    outer loop
      vertex 13.0866 29.6194 13
      vertex 11.9098 34.5106 13
      vertex 13.9547 34.9452 13
    endloop
  endfacet
  facet normal 0 0 -1
    outer loop
      vertex 10 33.6603 13
      vertex 13.0866 29.6194 13
      vertex 11.4645 28.5355 13
    endloop
  endfacet
  facet normal 0 0 -1
    outer loop
      vertex 6.90983 30.8779 13
      vertex 11.4645 28.5355 13
      vertex 10.3806 26.9134 13
    endloop
  endfacet
  facet normal 0 0 -1
    outer loop
      vertex 13.0866 29.6194 13
      vertex 10 33.6603 13
      vertex 11.9098 34.5106 13
    endloop
  endfacet
  facet normal 0 0 -1
    outer loop
      vertex 5.21852 27.0791 13
      vertex 10.3806 26.9134 13
      vertex 10 25 13
    endloop
  endfacet
  facet normal 0 0 -1
    outer loop
      vertex 11.4645 28.5355 13
      vertex 8.30869 32.4314 13
      vertex 10 33.6603 13
    endloop
  endfacet
  facet normal 0 0 -1
    outer loop
      vertex 11.4645 28.5355 13
      vertex 6.90983 30.8779 13
      vertex 8.30869 32.4314 13
    endloop
  endfacet
  facet normal 0 0 -1
    outer loop
      vertex 10.3806 26.9134 13
      vertex 5.86455 29.0674 13
      vertex 6.90983 30.8779 13
    endloop
  endfacet
  facet normal 0 0 -1
    outer loop
      vertex 10.3806 26.9134 13
      vertex 5.21852 27.0791 13
      vertex 5.86455 29.0674 13
    endloop
  endfacet
  facet normal 0 -0 -1
    outer loop
      vertex 5.21852 27.0791 13
      vertex 10 25 13
      vertex 5 25 13
    endloop
  endfacet
  facet normal 0.866024 0.500003 0
    outer loop
      vertex 24.1355 29.0674 23
      vertex 23.0902 30.8779 13
      vertex 23.0902 30.8779 23
    endloop
  endfacet
  facet normal 0.866024 0.500003 0
    outer loop
      vertex 23.0902 30.8779 13
      vertex 24.1355 29.0674 23
      vertex 24.1355 29.0674 13
    endloop
  endfacet
  facet normal -0.994522 0.104527 0
    outer loop
      vertex 5 25 13
      vertex 5.21852 27.0791 23
      vertex 5.21852 27.0791 13
    endloop
  endfacet
  facet normal -0.994522 0.104527 0
    outer loop
      vertex 5.21852 27.0791 23
      vertex 5 25 13
      vertex 5 25 23
    endloop
  endfacet
  facet normal 0.207886 0.978153 -0
    outer loop
      vertex 18.0902 34.5106 13
      vertex 16.0453 34.9452 23
      vertex 18.0902 34.5106 23
    endloop
  endfacet
  facet normal 0.207886 0.978153 0
    outer loop
      vertex 16.0453 34.9452 23
      vertex 18.0902 34.5106 13
      vertex 16.0453 34.9452 13
    endloop
  endfacet
  facet normal 0.406738 0.913545 -0
    outer loop
      vertex 20 33.6603 13
      vertex 18.0902 34.5106 23
      vertex 20 33.6603 23
    endloop
  endfacet
  facet normal 0.406738 0.913545 0
    outer loop
      vertex 18.0902 34.5106 23
      vertex 20 33.6603 13
      vertex 18.0902 34.5106 13
    endloop
  endfacet
  facet normal 0.951062 0.309001 0
    outer loop
      vertex 24.7815 27.0791 23
      vertex 24.1355 29.0674 13
      vertex 24.1355 29.0674 23
    endloop
  endfacet
  facet normal 0.951062 0.309001 0
    outer loop
      vertex 24.1355 29.0674 13
      vertex 24.7815 27.0791 23
      vertex 24.7815 27.0791 13
    endloop
  endfacet
  facet normal -0.207886 0.978153 0
    outer loop
      vertex 13.9547 34.9452 13
      vertex 11.9098 34.5106 23
      vertex 13.9547 34.9452 23
    endloop
  endfacet
  facet normal -0.207886 0.978153 0
    outer loop
      vertex 11.9098 34.5106 23
      vertex 13.9547 34.9452 13
      vertex 11.9098 34.5106 13
    endloop
  endfacet
  facet normal 0 1 -0
    outer loop
      vertex 16.0453 34.9452 13
      vertex 13.9547 34.9452 23
      vertex 16.0453 34.9452 23
    endloop
  endfacet
  facet normal 0 1 0
    outer loop
      vertex 13.9547 34.9452 23
      vertex 16.0453 34.9452 13
      vertex 13.9547 34.9452 13
    endloop
  endfacet
  facet normal 0 0 1
    outer loop
      vertex 24.98 25.1903 23
      vertex 24.98 25 23
      vertex 25 25 23
    endloop
  endfacet
  facet normal 0 0 1
    outer loop
      vertex 19.6194 26.9134 23
      vertex 24.7815 27.0791 23
      vertex 24.1355 29.0674 23
    endloop
  endfacet
  facet normal 0 0 1
    outer loop
      vertex 19.6194 26.9134 23
      vertex 24.1355 29.0674 23
      vertex 23.0902 30.8779 23
    endloop
  endfacet
  facet normal 0 0 1
    outer loop
      vertex 18.5355 28.5355 23
      vertex 23.0902 30.8779 23
      vertex 21.6913 32.4314 23
    endloop
  endfacet
  facet normal 0 0 1
    outer loop
      vertex 18.5355 28.5355 23
      vertex 21.6913 32.4314 23
      vertex 20 33.6603 23
    endloop
  endfacet
  facet normal 0 0 1
    outer loop
      vertex 24.7815 27.0791 23
      vertex 19.6194 26.9134 23
      vertex 19.98 25.5 23
    endloop
  endfacet
  facet normal 0 0 1
    outer loop
      vertex 19.98 25.5 23
      vertex 19.6194 26.9134 23
      vertex 19.98 25.1005 23
    endloop
  endfacet
  facet normal 0 0 1
    outer loop
      vertex 24.7815 27.0791 23
      vertex 19.98 25.5 23
      vertex 24.9474 25.5 23
    endloop
  endfacet
  facet normal 0 0 1
    outer loop
      vertex 23.0902 30.8779 23
      vertex 18.5355 28.5355 23
      vertex 19.6194 26.9134 23
    endloop
  endfacet
  facet normal 0 0 1
    outer loop
      vertex 16.9134 29.6194 23
      vertex 20 33.6603 23
      vertex 18.0902 34.5106 23
    endloop
  endfacet
  facet normal 0 0 1
    outer loop
      vertex 20 33.6603 23
      vertex 16.9134 29.6194 23
      vertex 18.5355 28.5355 23
    endloop
  endfacet
  facet normal 0 0 1
    outer loop
      vertex 16.0453 34.9452 23
      vertex 16.9134 29.6194 23
      vertex 18.0902 34.5106 23
    endloop
  endfacet
  facet normal 0 0 1
    outer loop
      vertex 16.0453 34.9452 23
      vertex 15 30 23
      vertex 16.9134 29.6194 23
    endloop
  endfacet
  facet normal -0 0 1
    outer loop
      vertex 13.9547 34.9452 23
      vertex 15 30 23
      vertex 16.0453 34.9452 23
    endloop
  endfacet
  facet normal 0 0 1
    outer loop
      vertex 13.9547 34.9452 23
      vertex 13.0866 29.6194 23
      vertex 15 30 23
    endloop
  endfacet
  facet normal -0 0 1
    outer loop
      vertex 11.9098 34.5106 23
      vertex 13.0866 29.6194 23
      vertex 13.9547 34.9452 23
    endloop
  endfacet
  facet normal -0 0 1
    outer loop
      vertex 10 33.6603 23
      vertex 13.0866 29.6194 23
      vertex 11.9098 34.5106 23
    endloop
  endfacet
  facet normal 0 0 1
    outer loop
      vertex 13.0866 29.6194 23
      vertex 10 33.6603 23
      vertex 11.4645 28.5355 23
    endloop
  endfacet
  facet normal -0 0 1
    outer loop
      vertex 8.30869 32.4314 23
      vertex 11.4645 28.5355 23
      vertex 10 33.6603 23
    endloop
  endfacet
  facet normal -0 0 1
    outer loop
      vertex 6.90983 30.8779 23
      vertex 11.4645 28.5355 23
      vertex 8.30869 32.4314 23
    endloop
  endfacet
  facet normal 0 0 1
    outer loop
      vertex 11.4645 28.5355 23
      vertex 6.90983 30.8779 23
      vertex 10.3806 26.9134 23
    endloop
  endfacet
  facet normal -0 0 1
    outer loop
      vertex 5.86455 29.0674 23
      vertex 10.3806 26.9134 23
      vertex 6.90983 30.8779 23
    endloop
  endfacet
  facet normal -0 0 1
    outer loop
      vertex 5.21852 27.0791 23
      vertex 10.3806 26.9134 23
      vertex 5.86455 29.0674 23
    endloop
  endfacet
  facet normal 0 0 1
    outer loop
      vertex 10.3806 26.9134 23
      vertex 5.21852 27.0791 23
      vertex 10 25 23
    endloop
  endfacet
  facet normal 0 0 1
    outer loop
      vertex 10 25 23
      vertex 5.21852 27.0791 23
      vertex 5 25 23
    endloop
  endfacet
  facet normal -0.951058 0.309014 0
    outer loop
      vertex 5.21852 27.0791 13
      vertex 5.86455 29.0674 23
      vertex 5.86455 29.0674 13
    endloop
  endfacet
  facet normal -0.951058 0.309014 0
    outer loop
      vertex 5.86455 29.0674 23
      vertex 5.21852 27.0791 13
      vertex 5.21852 27.0791 23
    endloop
  endfacet
  facet normal -0.743125 0.669152 0
    outer loop
      vertex 8.30869 32.4314 13
      vertex 6.90983 30.8779 23
      vertex 8.30869 32.4314 23
    endloop
  endfacet
  facet normal -0.743125 0.669152 0
    outer loop
      vertex 6.90983 30.8779 23
      vertex 8.30869 32.4314 13
      vertex 6.90983 30.8779 13
    endloop
  endfacet
  facet normal 0.743116 0.669163 0
    outer loop
      vertex 23.0902 30.8779 23
      vertex 21.6913 32.4314 13
      vertex 21.6913 32.4314 23
    endloop
  endfacet
  facet normal 0.743116 0.669163 0
    outer loop
      vertex 21.6913 32.4314 13
      vertex 23.0902 30.8779 23
      vertex 23.0902 30.8779 13
    endloop
  endfacet
  facet normal -0.587814 0.808996 0
    outer loop
      vertex 10 33.6603 13
      vertex 8.30869 32.4314 23
      vertex 10 33.6603 23
    endloop
  endfacet
  facet normal -0.587814 0.808996 0
    outer loop
      vertex 8.30869 32.4314 23
      vertex 10 33.6603 13
      vertex 8.30869 32.4314 13
    endloop
  endfacet
  facet normal -0.406738 0.913545 0
    outer loop
      vertex 11.9098 34.5106 13
      vertex 10 33.6603 23
      vertex 11.9098 34.5106 23
    endloop
  endfacet
  facet normal -0.406738 0.913545 0
    outer loop
      vertex 10 33.6603 23
      vertex 11.9098 34.5106 13
      vertex 10 33.6603 13
    endloop
  endfacet
  facet normal -0.195091 -0.980785 0
    outer loop
      vertex 15 30 13
      vertex 16.9134 29.6194 23
      vertex 15 30 23
    endloop
  endfacet
  facet normal -0.195091 -0.980785 -0
    outer loop
      vertex 16.9134 29.6194 23
      vertex 15 30 13
      vertex 16.9134 29.6194 13
    endloop
  endfacet
  facet normal 0.195091 -0.980785 0
    outer loop
      vertex 13.0866 29.6194 13
      vertex 15 30 23
      vertex 13.0866 29.6194 23
    endloop
  endfacet
  facet normal 0.195091 -0.980785 0
    outer loop
      vertex 15 30 23
      vertex 13.0866 29.6194 13
      vertex 15 30 13
    endloop
  endfacet
  facet normal 0.980785 -0.195091 0
    outer loop
      vertex 10 25 23
      vertex 10.3806 26.9134 13
      vertex 10.3806 26.9134 23
    endloop
  endfacet
  facet normal 0.980785 -0.195091 0
    outer loop
      vertex 10.3806 26.9134 13
      vertex 10 25 23
      vertex 10 25 13
    endloop
  endfacet
  facet normal 0.555587 -0.831458 0
    outer loop
      vertex 11.4645 28.5355 13
      vertex 13.0866 29.6194 23
      vertex 11.4645 28.5355 23
    endloop
  endfacet
  facet normal 0.555587 -0.831458 0
    outer loop
      vertex 13.0866 29.6194 23
      vertex 11.4645 28.5355 13
      vertex 13.0866 29.6194 13
    endloop
  endfacet
  facet normal 0.831458 -0.555587 0
    outer loop
      vertex 10.3806 26.9134 23
      vertex 11.4645 28.5355 13
      vertex 11.4645 28.5355 23
    endloop
  endfacet
  facet normal 0.831458 -0.555587 0
    outer loop
      vertex 11.4645 28.5355 13
      vertex 10.3806 26.9134 23
      vertex 10.3806 26.9134 13
    endloop
  endfacet
  facet normal -0.831458 -0.555587 0
    outer loop
      vertex 18.5355 28.5355 13
      vertex 19.6194 26.9134 23
      vertex 18.5355 28.5355 23
    endloop
  endfacet
  facet normal -0.831458 -0.555587 -0
    outer loop
      vertex 19.6194 26.9134 23
      vertex 18.5355 28.5355 13
      vertex 19.6194 26.9134 13
    endloop
  endfacet
  facet normal -0.555587 -0.831458 0
    outer loop
      vertex 16.9134 29.6194 13
      vertex 18.5355 28.5355 23
      vertex 16.9134 29.6194 23
    endloop
  endfacet
  facet normal -0.555587 -0.831458 -0
    outer loop
      vertex 18.5355 28.5355 23
      vertex 16.9134 29.6194 13
      vertex 18.5355 28.5355 13
    endloop
  endfacet
  facet normal -0.980786 -0.195086 0
    outer loop
      vertex 19.98 25.1005 13
      vertex 19.6194 26.9134 23
      vertex 19.6194 26.9134 13
    endloop
  endfacet
  facet normal -0.980786 -0.195086 0
    outer loop
      vertex 19.6194 26.9134 23
      vertex 19.98 25.1005 13
      vertex 19.98 25.1005 23
    endloop
  endfacet
  facet normal 0 0 -1
    outer loop
      vertex 19.6194 26.9134 13
      vertex 20 25 13
      vertex 19.98 25.1005 13
    endloop
  endfacet
  facet normal 0 -1 0
    outer loop
      vertex 24.98 25 13
      vertex 25 25 23
      vertex 24.98 25 23
    endloop
  endfacet
  facet normal 0 -1 -0
    outer loop
      vertex 25 25 23
      vertex 24.98 25 13
      vertex 25 25 13
    endloop
  endfacet
  facet normal 0 -1 0
    outer loop
      vertex 5 25 13
      vertex 10 25 23
      vertex 5 25 23
    endloop
  endfacet
  facet normal 0 -1 -0
    outer loop
      vertex 10 25 23
      vertex 5 25 13
      vertex 10 25 13
    endloop
  endfacet
  facet normal -1 0 0
    outer loop
      vertex 19.98 5 13
      vertex 19.98 25.1005 23
      vertex 19.98 25.1005 13
    endloop
  endfacet
  facet normal -1 -0 0
    outer loop
      vertex 19.98 25.1005 23
      vertex 19.98 5 13
      vertex 19.98 5 23
    endloop
  endfacet
  facet normal -0 0 0
    outer loop
      vertex 19.98 25.1005 23
      vertex 19.98 5 23
      vertex 19.98 25.5 23
    endloop
  endfacet
  facet normal -0 0 1
    outer loop
      vertex 19.98 25.5 23
      vertex 24.98 25 23
      vertex 24.98 25.5 23
    endloop
  endfacet
  facet normal 0 0 1
    outer loop
      vertex 24.98 25 23
      vertex 19.98 25.5 23
      vertex 19.98 5 23
    endloop
  endfacet
  facet normal 0 0 1
    outer loop
      vertex 24.98 25 23
      vertex 19.98 5 23
      vertex 24.98 2.5 23
    endloop
  endfacet
  facet normal 0 0 1
    outer loop
      vertex 13.5 2.5 23
      vertex 19.98 5 23
      vertex 13.5 5 23
    endloop
  endfacet
  facet normal 0 0 1
    outer loop
      vertex 19.98 5 23
      vertex 13.5 2.5 23
      vertex 24.98 2.5 23
    endloop
  endfacet
  facet normal 1 -0 0
    outer loop
      vertex 24.98 2.5 23
      vertex 24.98 25 13
      vertex 24.98 25 23
    endloop
  endfacet
  facet normal 1 0 0
    outer loop
      vertex 24.98 25 13
      vertex 24.98 2.5 23
      vertex 24.98 2.5 13
    endloop
  endfacet
  facet normal 1 -0 0
    outer loop
      vertex 24.98 25.1903 23
      vertex 24.98 25.5 13
      vertex 24.98 25.5 23
    endloop
  endfacet
  facet normal 1 0 0
    outer loop
      vertex 24.98 25.5 13
      vertex 24.98 25.1903 23
      vertex 24.98 25.1903 13
    endloop
  endfacet
  facet normal 0 0 0
    outer loop
      vertex 24.98 25.5 23
      vertex 24.98 25 23
      vertex 24.98 25.1903 23
    endloop
  endfacet
  facet normal 0 1 -0
    outer loop
      vertex 24.98 25.5 13
      vertex 24.9474 25.5 23
      vertex 24.98 25.5 23
    endloop
  endfacet
  facet normal 0 1 0
    outer loop
      vertex 24.9474 25.5 23
      vertex 24.98 25.5 13
      vertex 24.9474 25.5 13
    endloop
  endfacet
  facet normal 0 0 -0
    outer loop
      vertex 24.9474 25.5 23
      vertex 19.98 25.5 23
      vertex 24.98 25.5 23
    endloop
  endfacet
  facet normal 0 0 -1
    outer loop
      vertex 19.98 5 13
      vertex 24.98 25 13
      vertex 24.98 2.5 13
    endloop
  endfacet
  facet normal -0 0 -1
    outer loop
      vertex 24.98 25 13
      vertex 19.98 5 13
      vertex 20 25 13
    endloop
  endfacet
  facet normal 0 0 -1
    outer loop
      vertex 24.98 2.5 13
      vertex 14.5 5 13
      vertex 19.98 5 13
    endloop
  endfacet
  facet normal 0 0 -1
    outer loop
      vertex 9.5 2.5 13
      vertex 14.5 5 13
      vertex 24.98 2.5 13
    endloop
  endfacet
  facet normal 0 0 -1
    outer loop
      vertex 9.5 7 13
      vertex 14.5 5 13
      vertex 9.5 2.5 13
    endloop
  endfacet
  facet normal 0 0 -1
    outer loop
      vertex 14.5 5 13
      vertex 9.5 7 13
      vertex 14.5 7 13
    endloop
  endfacet
  facet normal -0 0 -1
    outer loop
      vertex 20 25 13
      vertex 19.98 5 13
      vertex 19.98 25.1005 13
    endloop
  endfacet
  facet normal 0 0 -1
    outer loop
      vertex 24.98 25.1903 13
      vertex 24.9474 25.5 13
      vertex 24.98 25.5 13
    endloop
  endfacet
  facet normal 0 1 -0
    outer loop
      vertex 19.98 5 13
      vertex 14.5 5 23
      vertex 19.98 5 23
    endloop
  endfacet
  facet normal 0 1 0
    outer loop
      vertex 14.5 5 23
      vertex 19.98 5 13
      vertex 14.5 5 13
    endloop
  endfacet
  facet normal 0 0 0
    outer loop
      vertex 19.98 5 23
      vertex 14.5 5 23
      vertex 13.5 5 23
    endloop
  endfacet
  facet normal -1 0 0
    outer loop
      vertex 9.5 2.5 13
      vertex 9.5 7 23
      vertex 9.5 7 13
    endloop
  endfacet
  facet normal -1 -0 0
    outer loop
      vertex 9.5 7 23
      vertex 9.5 2.5 13
      vertex 9.5 2.5 23
    endloop
  endfacet
  facet normal 1 -0 0
    outer loop
      vertex 14.5 5 23
      vertex 14.5 7 13
      vertex 14.5 7 23
    endloop
  endfacet
  facet normal 1 0 0
    outer loop
      vertex 14.5 7 13
      vertex 14.5 5 23
      vertex 14.5 5 13
    endloop
  endfacet
  facet normal 0 0 1
    outer loop
      vertex 14.5 7 23
      vertex 13.5 5 23
      vertex 14.5 5 23
    endloop
  endfacet
  facet normal -0 0 1
    outer loop
      vertex 9.5 7 23
      vertex 13.5 5 23
      vertex 14.5 7 23
    endloop
  endfacet
  facet normal 0 0 1
    outer loop
      vertex 9.5 2.5 23
      vertex 13.5 5 23
      vertex 9.5 7 23
    endloop
  endfacet
  facet normal 0 0 1
    outer loop
      vertex 13.5 5 23
      vertex 9.5 2.5 23
      vertex 13.5 2.5 23
    endloop
  endfacet
  facet normal 0 1 0
    outer loop
      vertex 9.5 7 13
      vertex 9.5 7 23
      vertex 14.5 7 23
    endloop
  endfacet
  facet normal 0 1 -0
    outer loop
      vertex 14.5 7 13
      vertex 9.5 7 13
      vertex 14.5 7 23
    endloop
  endfacet
  facet normal 0 1 -0
    outer loop
      vertex 16.0453 34.9452 -5
      vertex 13.9547 34.9452 5
      vertex 16.0453 34.9452 5
    endloop
  endfacet
  facet normal 0 1 0
    outer loop
      vertex 13.9547 34.9452 5
      vertex 16.0453 34.9452 -5
      vertex 13.9547 34.9452 -5
    endloop
  endfacet
  facet normal 0 0 -1
    outer loop
      vertex 20.02 25 -5
      vertex 24.7815 27.0791 -5
      vertex 25 25 -5
    endloop
  endfacet
  facet normal -0 0 -1
    outer loop
      vertex 24.7815 27.0791 -5
      vertex 19.6194 26.9134 -5
      vertex 24.1355 29.0674 -5
    endloop
  endfacet
  facet normal -0 0 -1
    outer loop
      vertex 24.1355 29.0674 -5
      vertex 19.6194 26.9134 -5
      vertex 23.0902 30.8779 -5
    endloop
  endfacet
  facet normal 0 0 -1
    outer loop
      vertex 24.7815 27.0791 -5
      vertex 20.02 25 -5
      vertex 19.6194 26.9134 -5
    endloop
  endfacet
  facet normal 0 0 -1
    outer loop
      vertex 19.6194 26.9134 -5
      vertex 20.02 25 -5
      vertex 20 25 -5
    endloop
  endfacet
  facet normal 0 0 -1
    outer loop
      vertex 18.5355 28.5355 -5
      vertex 23.0902 30.8779 -5
      vertex 19.6194 26.9134 -5
    endloop
  endfacet
  facet normal -0 0 -1
    outer loop
      vertex 23.0902 30.8779 -5
      vertex 18.5355 28.5355 -5
      vertex 21.6913 32.4314 -5
    endloop
  endfacet
  facet normal -0 0 -1
    outer loop
      vertex 21.6913 32.4314 -5
      vertex 18.5355 28.5355 -5
      vertex 20 33.6603 -5
    endloop
  endfacet
  facet normal 0 0 -1
    outer loop
      vertex 16.9134 29.6194 -5
      vertex 20 33.6603 -5
      vertex 18.5355 28.5355 -5
    endloop
  endfacet
  facet normal -0 0 -1
    outer loop
      vertex 20 33.6603 -5
      vertex 16.9134 29.6194 -5
      vertex 18.0902 34.5106 -5
    endloop
  endfacet
  facet normal 0 0 -1
    outer loop
      vertex 16.9134 29.6194 -5
      vertex 16.0453 34.9452 -5
      vertex 18.0902 34.5106 -5
    endloop
  endfacet
  facet normal 0 0 -1
    outer loop
      vertex 15 30 -5
      vertex 16.0453 34.9452 -5
      vertex 16.9134 29.6194 -5
    endloop
  endfacet
  facet normal 0 0 -1
    outer loop
      vertex 15 30 -5
      vertex 13.9547 34.9452 -5
      vertex 16.0453 34.9452 -5
    endloop
  endfacet
  facet normal 0 0 -1
    outer loop
      vertex 13.0866 29.6194 -5
      vertex 13.9547 34.9452 -5
      vertex 15 30 -5
    endloop
  endfacet
  facet normal 0 0 -1
    outer loop
      vertex 13.0866 29.6194 -5
      vertex 11.9098 34.5106 -5
      vertex 13.9547 34.9452 -5
    endloop
  endfacet
  facet normal 0 0 -1
    outer loop
      vertex 10 33.6603 -5
      vertex 13.0866 29.6194 -5
      vertex 11.4645 28.5355 -5
    endloop
  endfacet
  facet normal 0 0 -1
    outer loop
      vertex 6.90983 30.8779 -5
      vertex 11.4645 28.5355 -5
      vertex 10.3806 26.9134 -5
    endloop
  endfacet
  facet normal 0 0 -1
    outer loop
      vertex 13.0866 29.6194 -5
      vertex 10 33.6603 -5
      vertex 11.9098 34.5106 -5
    endloop
  endfacet
  facet normal 0 0 -1
    outer loop
      vertex 5.21852 27.0791 -5
      vertex 10.3806 26.9134 -5
      vertex 10 25 -5
    endloop
  endfacet
  facet normal 0 0 -1
    outer loop
      vertex 11.4645 28.5355 -5
      vertex 8.30869 32.4314 -5
      vertex 10 33.6603 -5
    endloop
  endfacet
  facet normal 0 0 -1
    outer loop
      vertex 11.4645 28.5355 -5
      vertex 6.90983 30.8779 -5
      vertex 8.30869 32.4314 -5
    endloop
  endfacet
  facet normal 0 0 -1
    outer loop
      vertex 10.3806 26.9134 -5
      vertex 5.86455 29.0674 -5
      vertex 6.90983 30.8779 -5
    endloop
  endfacet
  facet normal 0 0 -1
    outer loop
      vertex 10.3806 26.9134 -5
      vertex 5.21852 27.0791 -5
      vertex 5.86455 29.0674 -5
    endloop
  endfacet
  facet normal 0 -0 -1
    outer loop
      vertex 5.21852 27.0791 -5
      vertex 10 25 -5
      vertex 5 25 -5
    endloop
  endfacet
  facet normal 0.994526 0.104485 0
    outer loop
      vertex 24.9474 25.5 5
      vertex 24.7815 27.0791 -5
      vertex 24.7815 27.0791 5
    endloop
  endfacet
  facet normal 0.994526 0.104485 0
    outer loop
      vertex 24.7815 27.0791 -5
      vertex 24.9474 25.5 5
      vertex 24.9474 25.5 -5
    endloop
  endfacet
  facet normal -0 -0 1
    outer loop
      vertex 24.9474 25.5 -5
      vertex 25 25 -5
      vertex 24.7815 27.0791 -5
    endloop
  endfacet
  facet normal 0 0 1
    outer loop
      vertex 19.6194 26.9134 5
      vertex 24.7815 27.0791 5
      vertex 24.1355 29.0674 5
    endloop
  endfacet
  facet normal 0 0 1
    outer loop
      vertex 19.6194 26.9134 5
      vertex 24.1355 29.0674 5
      vertex 23.0902 30.8779 5
    endloop
  endfacet
  facet normal 0 0 1
    outer loop
      vertex 18.5355 28.5355 5
      vertex 23.0902 30.8779 5
      vertex 21.6913 32.4314 5
    endloop
  endfacet
  facet normal 0 0 1
    outer loop
      vertex 24.7815 27.0791 5
      vertex 19.6194 26.9134 5
      vertex 20.02 25.5 5
    endloop
  endfacet
  facet normal 0 0 1
    outer loop
      vertex 18.5355 28.5355 5
      vertex 21.6913 32.4314 5
      vertex 20 33.6603 5
    endloop
  endfacet
  facet normal 0 0 1
    outer loop
      vertex 24.7815 27.0791 5
      vertex 20.02 25.5 5
      vertex 24.9474 25.5 5
    endloop
  endfacet
  facet normal 0 -0 1
    outer loop
      vertex 20 25 5
      vertex 20.02 25.5 5
      vertex 19.6194 26.9134 5
    endloop
  endfacet
  facet normal 0 0 1
    outer loop
      vertex 20.02 25.5 5
      vertex 20 25 5
      vertex 20.02 25 5
    endloop
  endfacet
  facet normal 0 0 1
    outer loop
      vertex 23.0902 30.8779 5
      vertex 18.5355 28.5355 5
      vertex 19.6194 26.9134 5
    endloop
  endfacet
  facet normal 0 0 1
    outer loop
      vertex 16.9134 29.6194 5
      vertex 20 33.6603 5
      vertex 18.0902 34.5106 5
    endloop
  endfacet
  facet normal 0 0 1
    outer loop
      vertex 20 33.6603 5
      vertex 16.9134 29.6194 5
      vertex 18.5355 28.5355 5
    endloop
  endfacet
  facet normal 0 0 1
    outer loop
      vertex 16.0453 34.9452 5
      vertex 16.9134 29.6194 5
      vertex 18.0902 34.5106 5
    endloop
  endfacet
  facet normal 0 0 1
    outer loop
      vertex 16.0453 34.9452 5
      vertex 15 30 5
      vertex 16.9134 29.6194 5
    endloop
  endfacet
  facet normal -0 0 1
    outer loop
      vertex 13.9547 34.9452 5
      vertex 15 30 5
      vertex 16.0453 34.9452 5
    endloop
  endfacet
  facet normal 0 0 1
    outer loop
      vertex 13.9547 34.9452 5
      vertex 13.0866 29.6194 5
      vertex 15 30 5
    endloop
  endfacet
  facet normal -0 0 1
    outer loop
      vertex 11.9098 34.5106 5
      vertex 13.0866 29.6194 5
      vertex 13.9547 34.9452 5
    endloop
  endfacet
  facet normal -0 0 1
    outer loop
      vertex 10 33.6603 5
      vertex 13.0866 29.6194 5
      vertex 11.9098 34.5106 5
    endloop
  endfacet
  facet normal 0 0 1
    outer loop
      vertex 13.0866 29.6194 5
      vertex 10 33.6603 5
      vertex 11.4645 28.5355 5
    endloop
  endfacet
  facet normal -0 0 1
    outer loop
      vertex 8.30869 32.4314 5
      vertex 11.4645 28.5355 5
      vertex 10 33.6603 5
    endloop
  endfacet
  facet normal -0 0 1
    outer loop
      vertex 6.90983 30.8779 5
      vertex 11.4645 28.5355 5
      vertex 8.30869 32.4314 5
    endloop
  endfacet
  facet normal 0 0 1
    outer loop
      vertex 11.4645 28.5355 5
      vertex 6.90983 30.8779 5
      vertex 10.3806 26.9134 5
    endloop
  endfacet
  facet normal -0 0 1
    outer loop
      vertex 5.86455 29.0674 5
      vertex 10.3806 26.9134 5
      vertex 6.90983 30.8779 5
    endloop
  endfacet
  facet normal -0 0 1
    outer loop
      vertex 5.21852 27.0791 5
      vertex 10.3806 26.9134 5
      vertex 5.86455 29.0674 5
    endloop
  endfacet
  facet normal 0 0 1
    outer loop
      vertex 10.3806 26.9134 5
      vertex 5.21852 27.0791 5
      vertex 10 25 5
    endloop
  endfacet
  facet normal 0 0 1
    outer loop
      vertex 10 25 5
      vertex 5.21852 27.0791 5
      vertex 5 25 5
    endloop
  endfacet
  facet normal 0.207886 0.978153 -0
    outer loop
      vertex 18.0902 34.5106 -5
      vertex 16.0453 34.9452 5
      vertex 18.0902 34.5106 5
    endloop
  endfacet
  facet normal 0.207886 0.978153 0
    outer loop
      vertex 16.0453 34.9452 5
      vertex 18.0902 34.5106 -5
      vertex 16.0453 34.9452 -5
    endloop
  endfacet
  facet normal 0.866024 0.500003 0
    outer loop
      vertex 24.1355 29.0674 5
      vertex 23.0902 30.8779 -5
      vertex 23.0902 30.8779 5
    endloop
  endfacet
  facet normal 0.866024 0.500003 0
    outer loop
      vertex 23.0902 30.8779 -5
      vertex 24.1355 29.0674 5
      vertex 24.1355 29.0674 -5
    endloop
  endfacet
  facet normal -0.866028 0.499995 0
    outer loop
      vertex 5.86455 29.0674 -5
      vertex 6.90983 30.8779 5
      vertex 6.90983 30.8779 -5
    endloop
  endfacet
  facet normal -0.866028 0.499995 0
    outer loop
      vertex 6.90983 30.8779 5
      vertex 5.86455 29.0674 -5
      vertex 5.86455 29.0674 5
    endloop
  endfacet
  facet normal 0.587816 0.808995 -0
    outer loop
      vertex 21.6913 32.4314 -5
      vertex 20 33.6603 5
      vertex 21.6913 32.4314 5
    endloop
  endfacet
  facet normal 0.587816 0.808995 0
    outer loop
      vertex 20 33.6603 5
      vertex 21.6913 32.4314 -5
      vertex 20 33.6603 -5
    endloop
  endfacet
  facet normal 0.406738 0.913545 -0
    outer loop
      vertex 20 33.6603 -5
      vertex 18.0902 34.5106 5
      vertex 20 33.6603 5
    endloop
  endfacet
  facet normal 0.406738 0.913545 0
    outer loop
      vertex 18.0902 34.5106 5
      vertex 20 33.6603 -5
      vertex 18.0902 34.5106 -5
    endloop
  endfacet
  facet normal 0.951062 0.309001 0
    outer loop
      vertex 24.7815 27.0791 5
      vertex 24.1355 29.0674 -5
      vertex 24.1355 29.0674 5
    endloop
  endfacet
  facet normal 0.951062 0.309001 0
    outer loop
      vertex 24.1355 29.0674 -5
      vertex 24.7815 27.0791 5
      vertex 24.7815 27.0791 -5
    endloop
  endfacet
  facet normal -0.207886 0.978153 0
    outer loop
      vertex 13.9547 34.9452 -5
      vertex 11.9098 34.5106 5
      vertex 13.9547 34.9452 5
    endloop
  endfacet
  facet normal -0.207886 0.978153 0
    outer loop
      vertex 11.9098 34.5106 5
      vertex 13.9547 34.9452 -5
      vertex 11.9098 34.5106 -5
    endloop
  endfacet
  facet normal -0.743125 0.669152 0
    outer loop
      vertex 8.30869 32.4314 -5
      vertex 6.90983 30.8779 5
      vertex 8.30869 32.4314 5
    endloop
  endfacet
  facet normal -0.743125 0.669152 0
    outer loop
      vertex 6.90983 30.8779 5
      vertex 8.30869 32.4314 -5
      vertex 6.90983 30.8779 -5
    endloop
  endfacet
  facet normal -0.951058 0.309014 0
    outer loop
      vertex 5.21852 27.0791 -5
      vertex 5.86455 29.0674 5
      vertex 5.86455 29.0674 -5
    endloop
  endfacet
  facet normal -0.951058 0.309014 0
    outer loop
      vertex 5.86455 29.0674 5
      vertex 5.21852 27.0791 -5
      vertex 5.21852 27.0791 5
    endloop
  endfacet
  facet normal -0.994522 0.104527 0
    outer loop
      vertex 5 25 -5
      vertex 5.21852 27.0791 5
      vertex 5.21852 27.0791 -5
    endloop
  endfacet
  facet normal -0.994522 0.104527 0
    outer loop
      vertex 5.21852 27.0791 5
      vertex 5 25 -5
      vertex 5 25 5
    endloop
  endfacet
  facet normal 0.743116 0.669163 0
    outer loop
      vertex 23.0902 30.8779 5
      vertex 21.6913 32.4314 -5
      vertex 21.6913 32.4314 5
    endloop
  endfacet
  facet normal 0.743116 0.669163 0
    outer loop
      vertex 21.6913 32.4314 -5
      vertex 23.0902 30.8779 5
      vertex 23.0902 30.8779 -5
    endloop
  endfacet
  facet normal -0.587814 0.808996 0
    outer loop
      vertex 10 33.6603 -5
      vertex 8.30869 32.4314 5
      vertex 10 33.6603 5
    endloop
  endfacet
  facet normal -0.587814 0.808996 0
    outer loop
      vertex 8.30869 32.4314 5
      vertex 10 33.6603 -5
      vertex 8.30869 32.4314 -5
    endloop
  endfacet
  facet normal -0.406738 0.913545 0
    outer loop
      vertex 11.9098 34.5106 -5
      vertex 10 33.6603 5
      vertex 11.9098 34.5106 5
    endloop
  endfacet
  facet normal -0.406738 0.913545 0
    outer loop
      vertex 10 33.6603 5
      vertex 11.9098 34.5106 -5
      vertex 10 33.6603 -5
    endloop
  endfacet
  facet normal 0.555587 -0.831458 0
    outer loop
      vertex 11.4645 28.5355 -5
      vertex 13.0866 29.6194 5
      vertex 11.4645 28.5355 5
    endloop
  endfacet
  facet normal 0.555587 -0.831458 0
    outer loop
      vertex 13.0866 29.6194 5
      vertex 11.4645 28.5355 -5
      vertex 13.0866 29.6194 -5
    endloop
  endfacet
  facet normal 0.980785 -0.195091 0
    outer loop
      vertex 10 25 5
      vertex 10.3806 26.9134 -5
      vertex 10.3806 26.9134 5
    endloop
  endfacet
  facet normal 0.980785 -0.195091 0
    outer loop
      vertex 10.3806 26.9134 -5
      vertex 10 25 5
      vertex 10 25 -5
    endloop
  endfacet
  facet normal -0.980785 -0.195091 0
    outer loop
      vertex 20 25 -5
      vertex 19.6194 26.9134 5
      vertex 19.6194 26.9134 -5
    endloop
  endfacet
  facet normal -0.980785 -0.195091 0
    outer loop
      vertex 19.6194 26.9134 5
      vertex 20 25 -5
      vertex 20 25 5
    endloop
  endfacet
  facet normal -0.555587 -0.831458 0
    outer loop
      vertex 16.9134 29.6194 -5
      vertex 18.5355 28.5355 5
      vertex 16.9134 29.6194 5
    endloop
  endfacet
  facet normal -0.555587 -0.831458 -0
    outer loop
      vertex 18.5355 28.5355 5
      vertex 16.9134 29.6194 -5
      vertex 18.5355 28.5355 -5
    endloop
  endfacet
  facet normal -0.195091 -0.980785 0
    outer loop
      vertex 15 30 -5
      vertex 16.9134 29.6194 5
      vertex 15 30 5
    endloop
  endfacet
  facet normal -0.195091 -0.980785 -0
    outer loop
      vertex 16.9134 29.6194 5
      vertex 15 30 -5
      vertex 16.9134 29.6194 -5
    endloop
  endfacet
  facet normal -0.831458 -0.555587 0
    outer loop
      vertex 18.5355 28.5355 -5
      vertex 19.6194 26.9134 5
      vertex 18.5355 28.5355 5
    endloop
  endfacet
  facet normal -0.831458 -0.555587 -0
    outer loop
      vertex 19.6194 26.9134 5
      vertex 18.5355 28.5355 -5
      vertex 19.6194 26.9134 -5
    endloop
  endfacet
  facet normal 0.195091 -0.980785 0
    outer loop
      vertex 13.0866 29.6194 -5
      vertex 15 30 5
      vertex 13.0866 29.6194 5
    endloop
  endfacet
  facet normal 0.195091 -0.980785 0
    outer loop
      vertex 15 30 5
      vertex 13.0866 29.6194 -5
      vertex 15 30 -5
    endloop
  endfacet
  facet normal 0.831458 -0.555587 0
    outer loop
      vertex 10.3806 26.9134 5
      vertex 11.4645 28.5355 -5
      vertex 11.4645 28.5355 5
    endloop
  endfacet
  facet normal 0.831458 -0.555587 0
    outer loop
      vertex 11.4645 28.5355 -5
      vertex 10.3806 26.9134 5
      vertex 10.3806 26.9134 -5
    endloop
  endfacet
  facet normal 0 -1 0
    outer loop
      vertex 20 25 -5
      vertex 20.02 25 5
      vertex 20 25 5
    endloop
  endfacet
  facet normal 0 -1 -0
    outer loop
      vertex 20.02 25 5
      vertex 20 25 -5
      vertex 20.02 25 -5
    endloop
  endfacet
  facet normal 0 -1 0
    outer loop
      vertex 5 25 -5
      vertex 10 25 5
      vertex 5 25 5
    endloop
  endfacet
  facet normal 0 -1 -0
    outer loop
      vertex 10 25 5
      vertex 5 25 -5
      vertex 10 25 -5
    endloop
  endfacet
  facet normal -1 0 0
    outer loop
      vertex 20.02 5 -5
      vertex 20.02 25 5
      vertex 20.02 25 -5
    endloop
  endfacet
  facet normal -1 -0 0
    outer loop
      vertex 20.02 25 5
      vertex 20.02 5 -5
      vertex 20.02 5 5
    endloop
  endfacet
  facet normal 0 0 1
    outer loop
      vertex 20.02 25 5
      vertex 25 25.5 5
      vertex 20.02 25.5 5
    endloop
  endfacet
  facet normal 0 0 1
    outer loop
      vertex 20.02 5 5
      vertex 25 25.5 5
      vertex 20.02 25 5
    endloop
  endfacet
  facet normal 0 0 1
    outer loop
      vertex 25 25.5 5
      vertex 20.02 5 5
      vertex 25 2.5 5
    endloop
  endfacet
  facet normal 0 0 1
    outer loop
      vertex 13.5 2.5 5
      vertex 20.02 5 5
      vertex 13.5 5 5
    endloop
  endfacet
  facet normal 0 0 1
    outer loop
      vertex 20.02 5 5
      vertex 13.5 2.5 5
      vertex 25 2.5 5
    endloop
  endfacet
  facet normal 0 0 -1
    outer loop
      vertex 25 2.5 -5
      vertex 20.02 5 -5
      vertex 25 25 -5
    endloop
  endfacet
  facet normal 0 0 -1
    outer loop
      vertex 25 2.5 -5
      vertex 14.5 5 -5
      vertex 20.02 5 -5
    endloop
  endfacet
  facet normal 0 0 -1
    outer loop
      vertex 9.5 2.5 -5
      vertex 14.5 5 -5
      vertex 25 2.5 -5
    endloop
  endfacet
  facet normal 0 0 -1
    outer loop
      vertex 9.5 7 -5
      vertex 14.5 5 -5
      vertex 9.5 2.5 -5
    endloop
  endfacet
  facet normal 0 0 -1
    outer loop
      vertex 14.5 5 -5
      vertex 9.5 7 -5
      vertex 14.5 7 -5
    endloop
  endfacet
  facet normal -0 0 -1
    outer loop
      vertex 25 25 -5
      vertex 20.02 5 -5
      vertex 20.02 25 -5
    endloop
  endfacet
  facet normal 0 0 -1
    outer loop
      vertex 25 25 -5
      vertex 24.9474 25.5 -5
      vertex 25 25.5 -5
    endloop
  endfacet
  facet normal 0 1 -0
    outer loop
      vertex 25 25.5 -5
      vertex 24.9474 25.5 5
      vertex 25 25.5 5
    endloop
  endfacet
  facet normal 0 1 0
    outer loop
      vertex 24.9474 25.5 5
      vertex 25 25.5 -5
      vertex 24.9474 25.5 -5
    endloop
  endfacet
  facet normal 0 0 -0
    outer loop
      vertex 24.9474 25.5 5
      vertex 20.02 25.5 5
      vertex 25 25.5 5
    endloop
  endfacet
  facet normal 0 0 0
    outer loop
      vertex 20.02 5 5
      vertex 14.5 5 5
      vertex 13.5 5 5
    endloop
  endfacet
  facet normal 0 1 -0
    outer loop
      vertex 20.02 5 -5
      vertex 14.5 5 5
      vertex 20.02 5 5
    endloop
  endfacet
  facet normal 0 1 0
    outer loop
      vertex 14.5 5 5
      vertex 20.02 5 -5
      vertex 14.5 5 -5
    endloop
  endfacet
  facet normal -1 0 0
    outer loop
      vertex 9.5 2.5 -5
      vertex 9.5 7 5
      vertex 9.5 7 -5
    endloop
  endfacet
  facet normal -1 -0 0
    outer loop
      vertex 9.5 7 5
      vertex 9.5 2.5 -5
      vertex 9.5 2.5 5
    endloop
  endfacet
  facet normal 1 -0 0
    outer loop
      vertex 14.5 5 5
      vertex 14.5 7 -5
      vertex 14.5 7 5
    endloop
  endfacet
  facet normal 1 0 0
    outer loop
      vertex 14.5 7 -5
      vertex 14.5 5 5
      vertex 14.5 5 -5
    endloop
  endfacet
  facet normal 0 0 1
    outer loop
      vertex 14.5 7 5
      vertex 13.5 5 5
      vertex 14.5 5 5
    endloop
  endfacet
  facet normal -0 0 1
    outer loop
      vertex 9.5 7 5
      vertex 13.5 5 5
      vertex 14.5 7 5
    endloop
  endfacet
  facet normal 0 0 1
    outer loop
      vertex 9.5 2.5 5
      vertex 13.5 5 5
      vertex 9.5 7 5
    endloop
  endfacet
  facet normal 0 0 1
    outer loop
      vertex 13.5 5 5
      vertex 9.5 2.5 5
      vertex 13.5 2.5 5
    endloop
  endfacet
  facet normal 0 1 0
    outer loop
      vertex 9.5 7 -5
      vertex 9.5 7 5
      vertex 14.5 7 5
    endloop
  endfacet
  facet normal 0 1 -0
    outer loop
      vertex 14.5 7 -5
      vertex 9.5 7 -5
      vertex 14.5 7 5
    endloop
  endfacet
  facet normal 1 0 0
    outer loop
      vertex 25 -12.3963 -14
      vertex 25 -24.1926 -6.62888
      vertex 25 -40 -14
    endloop
  endfacet
  facet normal 1 0 0
    outer loop
      vertex 25 -18.6939 4.06482
      vertex 25 -16.4104 -3
      vertex 25 -3.54338 -3
    endloop
  endfacet
  facet normal 1 0 0
    outer loop
      vertex 25 -16.4104 -3
      vertex 25 -18.6939 4.06482
      vertex 25 -30 -3
    endloop
  endfacet
  facet normal 1 0 0
    outer loop
      vertex 25 -2.5 31.4865
      vertex 25 -40 14
      vertex 25 -2.79431 14
    endloop
  endfacet
  facet normal 1 -0 0
    outer loop
      vertex 25 0 9
      vertex 25 2.5 5
      vertex 25 2.5 33.5
    endloop
  endfacet
  facet normal 1 0 0
    outer loop
      vertex 25 2.5 5
      vertex 25 0 9
      vertex 25 2.5 -5
    endloop
  endfacet
  facet normal 1 0 0
    outer loop
      vertex 25 2.5 -5
      vertex 25 0 9
      vertex 25 2.5 -13
    endloop
  endfacet
  facet normal 1 0 0
    outer loop
      vertex 25 0 -32.6523
      vertex 25 2.5 -13
      vertex 25 0 9
    endloop
  endfacet
  facet normal 1 0 0
    outer loop
      vertex 25 2.5 -13
      vertex 25 0 -32.6523
      vertex 25 2.5 -23
    endloop
  endfacet
  facet normal 1 0 0
    outer loop
      vertex 25 -2.5 31.4865
      vertex 25 2.5 33.5
      vertex 25 -2.5 33.5
    endloop
  endfacet
  facet normal 1 0 0
    outer loop
      vertex 25 -2.79431 14
      vertex 25 2.5 33.5
      vertex 25 -2.5 31.4865
    endloop
  endfacet
  facet normal 1 0 0
    outer loop
      vertex 25 2.5 33.5
      vertex 25 -2.79431 14
      vertex 25 0 9
    endloop
  endfacet
  facet normal 1 0 0
    outer loop
      vertex 25 0 9
      vertex 25 -2.79431 14
      vertex 25 -10.796 9
    endloop
  endfacet
  facet normal 1 0 0
    outer loop
      vertex 25 2.5 -23
      vertex 25 0 -32.6523
      vertex 25 2.5 -33.5
    endloop
  endfacet
  facet normal 1 0 0
    outer loop
      vertex 25 0 -32.6523
      vertex 25 -2.5 -33.5
      vertex 25 2.5 -33.5
    endloop
  endfacet
  facet normal 1 0 0
    outer loop
      vertex 25 -2.5 -33.5
      vertex 25 0 -32.6523
      vertex 25 -2.5 -31.4865
    endloop
  endfacet
  facet normal 1 0 0
    outer loop
      vertex 25 25.5 -13
      vertex 25 25 -23
      vertex 25 25.5 -23
    endloop
  endfacet
  facet normal 1 -0 0
    outer loop
      vertex 25 2.5 -13
      vertex 25 25 -23
      vertex 25 25.5 -13
    endloop
  endfacet
  facet normal 1 0 0
    outer loop
      vertex 25 25 -23
      vertex 25 2.5 -13
      vertex 25 2.5 -23
    endloop
  endfacet
  facet normal 1 0 0
    outer loop
      vertex 25 25.5 5
      vertex 25 25 -5
      vertex 25 25.5 -5
    endloop
  endfacet
  facet normal 1 -0 0
    outer loop
      vertex 25 2.5 5
      vertex 25 25 -5
      vertex 25 25.5 5
    endloop
  endfacet
  facet normal 1 0 0
    outer loop
      vertex 25 25 -5
      vertex 25 2.5 5
      vertex 25 2.5 -5
    endloop
  endfacet
  facet normal 0 1 -0
    outer loop
      vertex 16.0453 34.9452 -23
      vertex 13.9547 34.9452 -13
      vertex 16.0453 34.9452 -13
    endloop
  endfacet
  facet normal 0 1 0
    outer loop
      vertex 13.9547 34.9452 -13
      vertex 16.0453 34.9452 -23
      vertex 13.9547 34.9452 -23
    endloop
  endfacet
  facet normal 0 0 -1
    outer loop
      vertex 20.02 25 -23
      vertex 24.7815 27.0791 -23
      vertex 25 25 -23
    endloop
  endfacet
  facet normal -0 0 -1
    outer loop
      vertex 24.7815 27.0791 -23
      vertex 19.6194 26.9134 -23
      vertex 24.1355 29.0674 -23
    endloop
  endfacet
  facet normal -0 0 -1
    outer loop
      vertex 24.1355 29.0674 -23
      vertex 19.6194 26.9134 -23
      vertex 23.0902 30.8779 -23
    endloop
  endfacet
  facet normal 0 0 -1
    outer loop
      vertex 24.7815 27.0791 -23
      vertex 20.02 25 -23
      vertex 19.6194 26.9134 -23
    endloop
  endfacet
  facet normal 0 0 -1
    outer loop
      vertex 19.6194 26.9134 -23
      vertex 20.02 25 -23
      vertex 20 25 -23
    endloop
  endfacet
  facet normal 0 0 -1
    outer loop
      vertex 18.5355 28.5355 -23
      vertex 23.0902 30.8779 -23
      vertex 19.6194 26.9134 -23
    endloop
  endfacet
  facet normal -0 0 -1
    outer loop
      vertex 23.0902 30.8779 -23
      vertex 18.5355 28.5355 -23
      vertex 21.6913 32.4314 -23
    endloop
  endfacet
  facet normal -0 0 -1
    outer loop
      vertex 21.6913 32.4314 -23
      vertex 18.5355 28.5355 -23
      vertex 20 33.6603 -23
    endloop
  endfacet
  facet normal 0 0 -1
    outer loop
      vertex 16.9134 29.6194 -23
      vertex 20 33.6603 -23
      vertex 18.5355 28.5355 -23
    endloop
  endfacet
  facet normal -0 0 -1
    outer loop
      vertex 20 33.6603 -23
      vertex 16.9134 29.6194 -23
      vertex 18.0902 34.5106 -23
    endloop
  endfacet
  facet normal 0 0 -1
    outer loop
      vertex 16.9134 29.6194 -23
      vertex 16.0453 34.9452 -23
      vertex 18.0902 34.5106 -23
    endloop
  endfacet
  facet normal 0 0 -1
    outer loop
      vertex 15 30 -23
      vertex 16.0453 34.9452 -23
      vertex 16.9134 29.6194 -23
    endloop
  endfacet
  facet normal 0 0 -1
    outer loop
      vertex 15 30 -23
      vertex 13.9547 34.9452 -23
      vertex 16.0453 34.9452 -23
    endloop
  endfacet
  facet normal 0 0 -1
    outer loop
      vertex 13.0866 29.6194 -23
      vertex 13.9547 34.9452 -23
      vertex 15 30 -23
    endloop
  endfacet
  facet normal 0 0 -1
    outer loop
      vertex 13.0866 29.6194 -23
      vertex 11.9098 34.5106 -23
      vertex 13.9547 34.9452 -23
    endloop
  endfacet
  facet normal 0 0 -1
    outer loop
      vertex 10 33.6603 -23
      vertex 13.0866 29.6194 -23
      vertex 11.4645 28.5355 -23
    endloop
  endfacet
  facet normal 0 0 -1
    outer loop
      vertex 6.90983 30.8779 -23
      vertex 11.4645 28.5355 -23
      vertex 10.3806 26.9134 -23
    endloop
  endfacet
  facet normal 0 0 -1
    outer loop
      vertex 13.0866 29.6194 -23
      vertex 10 33.6603 -23
      vertex 11.9098 34.5106 -23
    endloop
  endfacet
  facet normal 0 0 -1
    outer loop
      vertex 5.21852 27.0791 -23
      vertex 10.3806 26.9134 -23
      vertex 10 25 -23
    endloop
  endfacet
  facet normal 0 0 -1
    outer loop
      vertex 11.4645 28.5355 -23
      vertex 8.30869 32.4314 -23
      vertex 10 33.6603 -23
    endloop
  endfacet
  facet normal 0 0 -1
    outer loop
      vertex 11.4645 28.5355 -23
      vertex 6.90983 30.8779 -23
      vertex 8.30869 32.4314 -23
    endloop
  endfacet
  facet normal 0 0 -1
    outer loop
      vertex 10.3806 26.9134 -23
      vertex 5.86455 29.0674 -23
      vertex 6.90983 30.8779 -23
    endloop
  endfacet
  facet normal 0 0 -1
    outer loop
      vertex 10.3806 26.9134 -23
      vertex 5.21852 27.0791 -23
      vertex 5.86455 29.0674 -23
    endloop
  endfacet
  facet normal 0 -0 -1
    outer loop
      vertex 5.21852 27.0791 -23
      vertex 10 25 -23
      vertex 5 25 -23
    endloop
  endfacet
  facet normal 0.994526 0.104485 0
    outer loop
      vertex 24.9474 25.5 -13
      vertex 24.7815 27.0791 -23
      vertex 24.7815 27.0791 -13
    endloop
  endfacet
  facet normal 0.994526 0.104485 0
    outer loop
      vertex 24.7815 27.0791 -23
      vertex 24.9474 25.5 -13
      vertex 24.9474 25.5 -23
    endloop
  endfacet
  facet normal 0 0 1
    outer loop
      vertex 24.7815 27.0791 -23
      vertex 24.9474 25.5 -23
      vertex 25 25 -23
    endloop
  endfacet
  facet normal 0 0 1
    outer loop
      vertex 19.6194 26.9134 -13
      vertex 24.7815 27.0791 -13
      vertex 24.1355 29.0674 -13
    endloop
  endfacet
  facet normal 0 0 1
    outer loop
      vertex 19.6194 26.9134 -13
      vertex 24.1355 29.0674 -13
      vertex 23.0902 30.8779 -13
    endloop
  endfacet
  facet normal 0 0 1
    outer loop
      vertex 18.5355 28.5355 -13
      vertex 23.0902 30.8779 -13
      vertex 21.6913 32.4314 -13
    endloop
  endfacet
  facet normal 0 0 1
    outer loop
      vertex 24.7815 27.0791 -13
      vertex 19.6194 26.9134 -13
      vertex 20.02 25.5 -13
    endloop
  endfacet
  facet normal 0 0 1
    outer loop
      vertex 18.5355 28.5355 -13
      vertex 21.6913 32.4314 -13
      vertex 20 33.6603 -13
    endloop
  endfacet
  facet normal 0 0 1
    outer loop
      vertex 24.7815 27.0791 -13
      vertex 20.02 25.5 -13
      vertex 24.9474 25.5 -13
    endloop
  endfacet
  facet normal 0 -0 1
    outer loop
      vertex 20 25 -13
      vertex 20.02 25.5 -13
      vertex 19.6194 26.9134 -13
    endloop
  endfacet
  facet normal 0 0 1
    outer loop
      vertex 20.02 25.5 -13
      vertex 20 25 -13
      vertex 20.02 25 -13
    endloop
  endfacet
  facet normal 0 0 1
    outer loop
      vertex 23.0902 30.8779 -13
      vertex 18.5355 28.5355 -13
      vertex 19.6194 26.9134 -13
    endloop
  endfacet
  facet normal 0 0 1
    outer loop
      vertex 16.9134 29.6194 -13
      vertex 20 33.6603 -13
      vertex 18.0902 34.5106 -13
    endloop
  endfacet
  facet normal 0 0 1
    outer loop
      vertex 20 33.6603 -13
      vertex 16.9134 29.6194 -13
      vertex 18.5355 28.5355 -13
    endloop
  endfacet
  facet normal 0 0 1
    outer loop
      vertex 16.0453 34.9452 -13
      vertex 16.9134 29.6194 -13
      vertex 18.0902 34.5106 -13
    endloop
  endfacet
  facet normal 0 0 1
    outer loop
      vertex 16.0453 34.9452 -13
      vertex 15 30 -13
      vertex 16.9134 29.6194 -13
    endloop
  endfacet
  facet normal -0 0 1
    outer loop
      vertex 13.9547 34.9452 -13
      vertex 15 30 -13
      vertex 16.0453 34.9452 -13
    endloop
  endfacet
  facet normal 0 0 1
    outer loop
      vertex 13.9547 34.9452 -13
      vertex 13.0866 29.6194 -13
      vertex 15 30 -13
    endloop
  endfacet
  facet normal -0 0 1
    outer loop
      vertex 11.9098 34.5106 -13
      vertex 13.0866 29.6194 -13
      vertex 13.9547 34.9452 -13
    endloop
  endfacet
  facet normal -0 0 1
    outer loop
      vertex 10 33.6603 -13
      vertex 13.0866 29.6194 -13
      vertex 11.9098 34.5106 -13
    endloop
  endfacet
  facet normal 0 0 1
    outer loop
      vertex 13.0866 29.6194 -13
      vertex 10 33.6603 -13
      vertex 11.4645 28.5355 -13
    endloop
  endfacet
  facet normal -0 0 1
    outer loop
      vertex 8.30869 32.4314 -13
      vertex 11.4645 28.5355 -13
      vertex 10 33.6603 -13
    endloop
  endfacet
  facet normal -0 0 1
    outer loop
      vertex 6.90983 30.8779 -13
      vertex 11.4645 28.5355 -13
      vertex 8.30869 32.4314 -13
    endloop
  endfacet
  facet normal 0 0 1
    outer loop
      vertex 11.4645 28.5355 -13
      vertex 6.90983 30.8779 -13
      vertex 10.3806 26.9134 -13
    endloop
  endfacet
  facet normal -0 0 1
    outer loop
      vertex 5.86455 29.0674 -13
      vertex 10.3806 26.9134 -13
      vertex 6.90983 30.8779 -13
    endloop
  endfacet
  facet normal -0 0 1
    outer loop
      vertex 5.21852 27.0791 -13
      vertex 10.3806 26.9134 -13
      vertex 5.86455 29.0674 -13
    endloop
  endfacet
  facet normal 0 0 1
    outer loop
      vertex 10.3806 26.9134 -13
      vertex 5.21852 27.0791 -13
      vertex 10 25 -13
    endloop
  endfacet
  facet normal 0 0 1
    outer loop
      vertex 10 25 -13
      vertex 5.21852 27.0791 -13
      vertex 5 25 -13
    endloop
  endfacet
  facet normal 0.207886 0.978153 -0
    outer loop
      vertex 18.0902 34.5106 -23
      vertex 16.0453 34.9452 -13
      vertex 18.0902 34.5106 -13
    endloop
  endfacet
  facet normal 0.207886 0.978153 0
    outer loop
      vertex 16.0453 34.9452 -13
      vertex 18.0902 34.5106 -23
      vertex 16.0453 34.9452 -23
    endloop
  endfacet
  facet normal 0.866024 0.500003 0
    outer loop
      vertex 24.1355 29.0674 -13
      vertex 23.0902 30.8779 -23
      vertex 23.0902 30.8779 -13
    endloop
  endfacet
  facet normal 0.866024 0.500003 0
    outer loop
      vertex 23.0902 30.8779 -23
      vertex 24.1355 29.0674 -13
      vertex 24.1355 29.0674 -23
    endloop
  endfacet
  facet normal -0.866028 0.499995 0
    outer loop
      vertex 5.86455 29.0674 -23
      vertex 6.90983 30.8779 -13
      vertex 6.90983 30.8779 -23
    endloop
  endfacet
  facet normal -0.866028 0.499995 0
    outer loop
      vertex 6.90983 30.8779 -13
      vertex 5.86455 29.0674 -23
      vertex 5.86455 29.0674 -13
    endloop
  endfacet
  facet normal 0.587816 0.808995 -0
    outer loop
      vertex 21.6913 32.4314 -23
      vertex 20 33.6603 -13
      vertex 21.6913 32.4314 -13
    endloop
  endfacet
  facet normal 0.587816 0.808995 0
    outer loop
      vertex 20 33.6603 -13
      vertex 21.6913 32.4314 -23
      vertex 20 33.6603 -23
    endloop
  endfacet
  facet normal 0.406738 0.913545 -0
    outer loop
      vertex 20 33.6603 -23
      vertex 18.0902 34.5106 -13
      vertex 20 33.6603 -13
    endloop
  endfacet
  facet normal 0.406738 0.913545 0
    outer loop
      vertex 18.0902 34.5106 -13
      vertex 20 33.6603 -23
      vertex 18.0902 34.5106 -23
    endloop
  endfacet
  facet normal 0.951062 0.309001 0
    outer loop
      vertex 24.7815 27.0791 -13
      vertex 24.1355 29.0674 -23
      vertex 24.1355 29.0674 -13
    endloop
  endfacet
  facet normal 0.951062 0.309001 0
    outer loop
      vertex 24.1355 29.0674 -23
      vertex 24.7815 27.0791 -13
      vertex 24.7815 27.0791 -23
    endloop
  endfacet
  facet normal -0.207886 0.978153 0
    outer loop
      vertex 13.9547 34.9452 -23
      vertex 11.9098 34.5106 -13
      vertex 13.9547 34.9452 -13
    endloop
  endfacet
  facet normal -0.207886 0.978153 0
    outer loop
      vertex 11.9098 34.5106 -13
      vertex 13.9547 34.9452 -23
      vertex 11.9098 34.5106 -23
    endloop
  endfacet
  facet normal -0.743125 0.669152 0
    outer loop
      vertex 8.30869 32.4314 -23
      vertex 6.90983 30.8779 -13
      vertex 8.30869 32.4314 -13
    endloop
  endfacet
  facet normal -0.743125 0.669152 0
    outer loop
      vertex 6.90983 30.8779 -13
      vertex 8.30869 32.4314 -23
      vertex 6.90983 30.8779 -23
    endloop
  endfacet
  facet normal -0.951058 0.309014 0
    outer loop
      vertex 5.21852 27.0791 -23
      vertex 5.86455 29.0674 -13
      vertex 5.86455 29.0674 -23
    endloop
  endfacet
  facet normal -0.951058 0.309014 0
    outer loop
      vertex 5.86455 29.0674 -13
      vertex 5.21852 27.0791 -23
      vertex 5.21852 27.0791 -13
    endloop
  endfacet
  facet normal -0.994522 0.104527 0
    outer loop
      vertex 5 25 -23
      vertex 5.21852 27.0791 -13
      vertex 5.21852 27.0791 -23
    endloop
  endfacet
  facet normal -0.994522 0.104527 0
    outer loop
      vertex 5.21852 27.0791 -13
      vertex 5 25 -23
      vertex 5 25 -13
    endloop
  endfacet
  facet normal 0.743116 0.669163 0
    outer loop
      vertex 23.0902 30.8779 -13
      vertex 21.6913 32.4314 -23
      vertex 21.6913 32.4314 -13
    endloop
  endfacet
  facet normal 0.743116 0.669163 0
    outer loop
      vertex 21.6913 32.4314 -23
      vertex 23.0902 30.8779 -13
      vertex 23.0902 30.8779 -23
    endloop
  endfacet
  facet normal -0.587814 0.808996 0
    outer loop
      vertex 10 33.6603 -23
      vertex 8.30869 32.4314 -13
      vertex 10 33.6603 -13
    endloop
  endfacet
  facet normal -0.587814 0.808996 0
    outer loop
      vertex 8.30869 32.4314 -13
      vertex 10 33.6603 -23
      vertex 8.30869 32.4314 -23
    endloop
  endfacet
  facet normal -0.406738 0.913545 0
    outer loop
      vertex 11.9098 34.5106 -23
      vertex 10 33.6603 -13
      vertex 11.9098 34.5106 -13
    endloop
  endfacet
  facet normal -0.406738 0.913545 0
    outer loop
      vertex 10 33.6603 -13
      vertex 11.9098 34.5106 -23
      vertex 10 33.6603 -23
    endloop
  endfacet
  facet normal 0.555587 -0.831458 0
    outer loop
      vertex 11.4645 28.5355 -23
      vertex 13.0866 29.6194 -13
      vertex 11.4645 28.5355 -13
    endloop
  endfacet
  facet normal 0.555587 -0.831458 0
    outer loop
      vertex 13.0866 29.6194 -13
      vertex 11.4645 28.5355 -23
      vertex 13.0866 29.6194 -23
    endloop
  endfacet
  facet normal 0.980785 -0.195091 0
    outer loop
      vertex 10 25 -13
      vertex 10.3806 26.9134 -23
      vertex 10.3806 26.9134 -13
    endloop
  endfacet
  facet normal 0.980785 -0.195091 0
    outer loop
      vertex 10.3806 26.9134 -23
      vertex 10 25 -13
      vertex 10 25 -23
    endloop
  endfacet
  facet normal -0.980785 -0.195091 0
    outer loop
      vertex 20 25 -23
      vertex 19.6194 26.9134 -13
      vertex 19.6194 26.9134 -23
    endloop
  endfacet
  facet normal -0.980785 -0.195091 0
    outer loop
      vertex 19.6194 26.9134 -13
      vertex 20 25 -23
      vertex 20 25 -13
    endloop
  endfacet
  facet normal -0.555587 -0.831458 0
    outer loop
      vertex 16.9134 29.6194 -23
      vertex 18.5355 28.5355 -13
      vertex 16.9134 29.6194 -13
    endloop
  endfacet
  facet normal -0.555587 -0.831458 -0
    outer loop
      vertex 18.5355 28.5355 -13
      vertex 16.9134 29.6194 -23
      vertex 18.5355 28.5355 -23
    endloop
  endfacet
  facet normal -0.195091 -0.980785 0
    outer loop
      vertex 15 30 -23
      vertex 16.9134 29.6194 -13
      vertex 15 30 -13
    endloop
  endfacet
  facet normal -0.195091 -0.980785 -0
    outer loop
      vertex 16.9134 29.6194 -13
      vertex 15 30 -23
      vertex 16.9134 29.6194 -23
    endloop
  endfacet
  facet normal -0.831458 -0.555587 0
    outer loop
      vertex 18.5355 28.5355 -23
      vertex 19.6194 26.9134 -13
      vertex 18.5355 28.5355 -13
    endloop
  endfacet
  facet normal -0.831458 -0.555587 -0
    outer loop
      vertex 19.6194 26.9134 -13
      vertex 18.5355 28.5355 -23
      vertex 19.6194 26.9134 -23
    endloop
  endfacet
  facet normal 0.195091 -0.980785 0
    outer loop
      vertex 13.0866 29.6194 -23
      vertex 15 30 -13
      vertex 13.0866 29.6194 -13
    endloop
  endfacet
  facet normal 0.195091 -0.980785 0
    outer loop
      vertex 15 30 -13
      vertex 13.0866 29.6194 -23
      vertex 15 30 -23
    endloop
  endfacet
  facet normal 0.831458 -0.555587 0
    outer loop
      vertex 10.3806 26.9134 -13
      vertex 11.4645 28.5355 -23
      vertex 11.4645 28.5355 -13
    endloop
  endfacet
  facet normal 0.831458 -0.555587 0
    outer loop
      vertex 11.4645 28.5355 -23
      vertex 10.3806 26.9134 -13
      vertex 10.3806 26.9134 -23
    endloop
  endfacet
  facet normal 0 -1 0
    outer loop
      vertex 20 25 -23
      vertex 20.02 25 -13
      vertex 20 25 -13
    endloop
  endfacet
  facet normal 0 -1 -0
    outer loop
      vertex 20.02 25 -13
      vertex 20 25 -23
      vertex 20.02 25 -23
    endloop
  endfacet
  facet normal 0 -1 0
    outer loop
      vertex 5 25 -23
      vertex 10 25 -13
      vertex 5 25 -13
    endloop
  endfacet
  facet normal 0 -1 -0
    outer loop
      vertex 10 25 -13
      vertex 5 25 -23
      vertex 10 25 -23
    endloop
  endfacet
  facet normal -1 0 0
    outer loop
      vertex 20.02 5 -23
      vertex 20.02 25 -13
      vertex 20.02 25 -23
    endloop
  endfacet
  facet normal -1 -0 0
    outer loop
      vertex 20.02 25 -13
      vertex 20.02 5 -23
      vertex 20.02 5 -13
    endloop
  endfacet
  facet normal 0 0 1
    outer loop
      vertex 20.02 25 -13
      vertex 25 25.5 -13
      vertex 20.02 25.5 -13
    endloop
  endfacet
  facet normal 0 0 1
    outer loop
      vertex 20.02 5 -13
      vertex 25 25.5 -13
      vertex 20.02 25 -13
    endloop
  endfacet
  facet normal 0 0 1
    outer loop
      vertex 25 25.5 -13
      vertex 20.02 5 -13
      vertex 25 2.5 -13
    endloop
  endfacet
  facet normal 0 0 1
    outer loop
      vertex 13.5 2.5 -13
      vertex 20.02 5 -13
      vertex 13.5 5 -13
    endloop
  endfacet
  facet normal 0 0 1
    outer loop
      vertex 20.02 5 -13
      vertex 13.5 2.5 -13
      vertex 25 2.5 -13
    endloop
  endfacet
  facet normal 0 0 -1
    outer loop
      vertex 25 2.5 -23
      vertex 20.02 5 -23
      vertex 25 25 -23
    endloop
  endfacet
  facet normal 0 0 -1
    outer loop
      vertex 25 2.5 -23
      vertex 14.5 5 -23
      vertex 20.02 5 -23
    endloop
  endfacet
  facet normal 0 0 -1
    outer loop
      vertex 9.5 2.5 -23
      vertex 14.5 5 -23
      vertex 25 2.5 -23
    endloop
  endfacet
  facet normal 0 0 -1
    outer loop
      vertex 9.5 7 -23
      vertex 14.5 5 -23
      vertex 9.5 2.5 -23
    endloop
  endfacet
  facet normal 0 0 -1
    outer loop
      vertex 14.5 5 -23
      vertex 9.5 7 -23
      vertex 14.5 7 -23
    endloop
  endfacet
  facet normal -0 0 -1
    outer loop
      vertex 25 25 -23
      vertex 20.02 5 -23
      vertex 20.02 25 -23
    endloop
  endfacet
  facet normal 0 0 -1
    outer loop
      vertex 25 25 -23
      vertex 24.9474 25.5 -23
      vertex 25 25.5 -23
    endloop
  endfacet
  facet normal 0 1 -0
    outer loop
      vertex 25 25.5 -23
      vertex 24.9474 25.5 -13
      vertex 25 25.5 -13
    endloop
  endfacet
  facet normal 0 1 0
    outer loop
      vertex 24.9474 25.5 -13
      vertex 25 25.5 -23
      vertex 24.9474 25.5 -23
    endloop
  endfacet
  facet normal 0 0 0
    outer loop
      vertex 25 25.5 -13
      vertex 24.9474 25.5 -13
      vertex 20.02 25.5 -13
    endloop
  endfacet
  facet normal 0 1 -0
    outer loop
      vertex 20.02 5 -23
      vertex 14.5 5 -13
      vertex 20.02 5 -13
    endloop
  endfacet
  facet normal 0 1 0
    outer loop
      vertex 14.5 5 -13
      vertex 20.02 5 -23
      vertex 14.5 5 -23
    endloop
  endfacet
  facet normal 0 0 0
    outer loop
      vertex 20.02 5 -13
      vertex 14.5 5 -13
      vertex 13.5 5 -13
    endloop
  endfacet
  facet normal -1 0 0
    outer loop
      vertex 9.5 2.5 -23
      vertex 9.5 7 -13
      vertex 9.5 7 -23
    endloop
  endfacet
  facet normal -1 -0 0
    outer loop
      vertex 9.5 7 -13
      vertex 9.5 2.5 -23
      vertex 9.5 2.5 -13
    endloop
  endfacet
  facet normal 1 -0 0
    outer loop
      vertex 14.5 5 -13
      vertex 14.5 7 -23
      vertex 14.5 7 -13
    endloop
  endfacet
  facet normal 1 0 0
    outer loop
      vertex 14.5 7 -23
      vertex 14.5 5 -13
      vertex 14.5 5 -23
    endloop
  endfacet
  facet normal 0 0 1
    outer loop
      vertex 14.5 7 -13
      vertex 13.5 5 -13
      vertex 14.5 5 -13
    endloop
  endfacet
  facet normal -0 0 1
    outer loop
      vertex 9.5 7 -13
      vertex 13.5 5 -13
      vertex 14.5 7 -13
    endloop
  endfacet
  facet normal 0 0 1
    outer loop
      vertex 9.5 2.5 -13
      vertex 13.5 5 -13
      vertex 9.5 7 -13
    endloop
  endfacet
  facet normal 0 0 1
    outer loop
      vertex 13.5 5 -13
      vertex 9.5 2.5 -13
      vertex 13.5 2.5 -13
    endloop
  endfacet
  facet normal 0 1 0
    outer loop
      vertex 9.5 7 -23
      vertex 9.5 7 -13
      vertex 14.5 7 -13
    endloop
  endfacet
  facet normal 0 1 -0
    outer loop
      vertex 14.5 7 -23
      vertex 9.5 7 -23
      vertex 14.5 7 -13
    endloop
  endfacet
  facet normal 1 -0 0
    outer loop
      vertex 23 -14.2775 -19
      vertex 23 -2.5 -30.0874
      vertex 23 -2.5 -19
    endloop
  endfacet
  facet normal 1 0 0
    outer loop
      vertex 23 -2.5 -30.0874
      vertex 23 -14.2775 -19
      vertex 23 -20.2773 -21.7978
    endloop
  endfacet
  facet normal -1 0 0
    outer loop
      vertex 23 -11.2655 -14
      vertex 23 -40 -14
      vertex 23 -20.2773 -9.79776
    endloop
  endfacet
  facet normal -1 0 0
    outer loop
      vertex 23 -20.2773 -9.79776
      vertex 23 -16.4104 -3
      vertex 23 -10.6212 -5.29507
    endloop
  endfacet
  facet normal -1 0 0
    outer loop
      vertex 23 -16.4104 -3
      vertex 23 -20.2773 -9.79776
      vertex 23 -40 -14
    endloop
  endfacet
  facet normal -1 0 0
    outer loop
      vertex 23 -16.4104 -3
      vertex 23 -23.8219 0.860508
      vertex 23 -10.6212 -5.29507
    endloop
  endfacet
  facet normal -1 0 -0
    outer loop
      vertex 23 -23.8219 0.860508
      vertex 23 -16.4104 -3
      vertex 23 -30 -3
    endloop
  endfacet
  facet normal 1 -0 0
    outer loop
      vertex 23 -20.6994 9
      vertex 23 -23.8219 0.860508
      vertex 23 -10.796 9
    endloop
  endfacet
  facet normal 1 0 -0
    outer loop
      vertex 23 -23.8219 0.860508
      vertex 23 -20.6994 9
      vertex 23 -30.9883 4.20224
    endloop
  endfacet
  facet normal -1 0 0
    outer loop
      vertex 23 -9.9769 14
      vertex 23 -22.2773 20.2022
      vertex 23 -9.47672 14.2332
    endloop
  endfacet
  facet normal -1 0 -0
    outer loop
      vertex 23 -22.2773 20.2022
      vertex 23 -9.9769 14
      vertex 23 -40 14
    endloop
  endfacet
  facet normal -1 0 0
    outer loop
      vertex 23 -22.2773 20.2022
      vertex 23 -2.5 31.4865
      vertex 23 -2.5 29.4245
    endloop
  endfacet
  facet normal -1 0 0
    outer loop
      vertex 23 -2.5 31.4865
      vertex 23 -22.2773 20.2022
      vertex 23 -40 14
    endloop
  endfacet
  facet normal 0 0 0
    outer loop
      vertex 25 0 9
      vertex 25 0 -4.65231
      vertex 25 0 -21.7461
    endloop
  endfacet
  facet normal 0 0 0
    outer loop
      vertex 25 0 -32.6523
      vertex 25 0 9
      vertex 25 0 -21.7461
    endloop
  endfacet
  facet normal 0 -0.422618 0.906308
    outer loop
      vertex 23 -2.5 31.4865
      vertex 25 -40 14
      vertex 25 -2.5 31.4865
    endloop
  endfacet
  facet normal 0 -0.422618 0.906308
    outer loop
      vertex 25 -40 14
      vertex 23 -2.5 31.4865
      vertex 23 -40 14
    endloop
  endfacet
  facet normal 1 0 0
    outer loop
      vertex 25 -2.79431 14
      vertex 25 -40 14
      vertex 25 -10.796 9
    endloop
  endfacet
  facet normal 1 -0 0
    outer loop
      vertex 25 -10.796 9
      vertex 25 0 -4.65231
      vertex 25 0 9
    endloop
  endfacet
  facet normal 1 0 0
    outer loop
      vertex 25 0 -4.65231
      vertex 25 -10.796 9
      vertex 25 -40 14
    endloop
  endfacet
  facet normal -1 0 0
    outer loop
      vertex 23 -18.6939 4.06482
      vertex 23 -20.6994 9
      vertex 23 -10.796 9
    endloop
  endfacet
  facet normal -1 -0 -0
    outer loop
      vertex 23 -20.6994 9
      vertex 23 -18.6939 4.06482
      vertex 23 -40 14
    endloop
  endfacet
  facet normal -1 -0 0
    outer loop
      vertex 23 -9.9769 14
      vertex 23 -20.6994 9
      vertex 23 -40 14
    endloop
  endfacet
  facet normal 0 -0.422618 -0.906308
    outer loop
      vertex 23 -40 14
      vertex 25 -18.6939 4.06482
      vertex 25 -40 14
    endloop
  endfacet
  facet normal -0 -0.422618 -0.906308
    outer loop
      vertex 25 -18.6939 4.06482
      vertex 23 -40 14
      vertex 23 -18.6939 4.06482
    endloop
  endfacet
  facet normal -1 0 0
    outer loop
      vertex 25 -40 14
      vertex 25 -18.6939 4.06482
      vertex 25 -3.54338 -3
    endloop
  endfacet
  facet normal -1 0 0
    outer loop
      vertex 25 -40 14
      vertex 25 -3.54338 -3
      vertex 25 0 -4.65231
    endloop
  endfacet
  facet normal 0 0 -1
    outer loop
      vertex 23 -30 -3
      vertex 25 -16.4104 -3
      vertex 25 -30 -3
    endloop
  endfacet
  facet normal -0 0 -1
    outer loop
      vertex 25 -16.4104 -3
      vertex 23 -30 -3
      vertex 23 -16.4104 -3
    endloop
  endfacet
  facet normal 0 -0.529917 0.848049
    outer loop
      vertex 23 -23.8219 0.860508
      vertex 25 -18.6939 4.06482
      vertex 23 -18.6939 4.06482
    endloop
  endfacet
  facet normal 4.69013e-06 -0.529918 0.848049
    outer loop
      vertex 25 -18.6939 4.06482
      vertex 23 -23.8219 0.860508
      vertex 25 -30 -3
    endloop
  endfacet
  facet normal 0 -0.52992 0.848048
    outer loop
      vertex 25 -30 -3
      vertex 23 -23.8219 0.860508
      vertex 23 -30 -3
    endloop
  endfacet
  facet normal 1 0 0
    outer loop
      vertex 23 -23.8219 0.860508
      vertex 23 -18.6939 4.06482
      vertex 23 -10.796 9
    endloop
  endfacet
  facet normal 1 0 0
    outer loop
      vertex 25 -3.54338 -3
      vertex 25 0 -21.7461
      vertex 25 0 -4.65231
    endloop
  endfacet
  facet normal 1 -0 0
    outer loop
      vertex 25 -16.4104 -3
      vertex 25 0 -21.7461
      vertex 25 -3.54338 -3
    endloop
  endfacet
  facet normal 1 0 0
    outer loop
      vertex 25 0 -21.7461
      vertex 25 -16.4104 -3
      vertex 25 -30 -3
    endloop
  endfacet
  facet normal -1 0 0
    outer loop
      vertex 23 -24.1926 -6.62888
      vertex 23 -30 -3
      vertex 23 -16.4104 -3
    endloop
  endfacet
  facet normal -0 0 1
    outer loop
      vertex 23 -16.4104 -3
      vertex 25 -30 -3
      vertex 25 -16.4104 -3
    endloop
  endfacet
  facet normal 0 0 1
    outer loop
      vertex 25 -30 -3
      vertex 23 -16.4104 -3
      vertex 23 -30 -3
    endloop
  endfacet
  facet normal 0 -0.529921 -0.848047
    outer loop
      vertex 23 -30 -3
      vertex 25 -24.1926 -6.62888
      vertex 25 -30 -3
    endloop
  endfacet
  facet normal -0 -0.529921 -0.848047
    outer loop
      vertex 25 -24.1926 -6.62888
      vertex 23 -30 -3
      vertex 23 -24.1926 -6.62888
    endloop
  endfacet
  facet normal -1 0 0
    outer loop
      vertex 25 -24.1926 -6.62888
      vertex 25 -12.3963 -14
      vertex 25 0 -21.7461
    endloop
  endfacet
  facet normal 1 -0 -0
    outer loop
      vertex 25 -24.1926 -6.62888
      vertex 25 0 -21.7461
      vertex 25 -30 -3
    endloop
  endfacet
  facet normal 0 -0.422619 0.906308
    outer loop
      vertex 23 -24.1926 -6.62888
      vertex 25 -40 -14
      vertex 25 -24.1926 -6.62888
    endloop
  endfacet
  facet normal 0 -0.422619 0.906308
    outer loop
      vertex 25 -40 -14
      vertex 23 -24.1926 -6.62888
      vertex 23 -40 -14
    endloop
  endfacet
  facet normal -1 0 0
    outer loop
      vertex 23 -40 -14
      vertex 23 -24.1926 -6.62888
      vertex 23 -16.4104 -3
    endloop
  endfacet
  facet normal 1 0 0
    outer loop
      vertex 25 -12.3963 -14
      vertex 25 0 -32.6523
      vertex 25 0 -21.7461
    endloop
  endfacet
  facet normal 1 0 0
    outer loop
      vertex 25 0 -32.6523
      vertex 25 -12.3963 -14
      vertex 25 -40 -14
    endloop
  endfacet
  facet normal -1 0 0
    outer loop
      vertex 23 -2.5 -31.4865
      vertex 23 -14.2775 -19
      vertex 23 -2.5 -19
    endloop
  endfacet
  facet normal -1 -0 -0
    outer loop
      vertex 23 -14.2775 -19
      vertex 23 -2.5 -31.4865
      vertex 23 -40 -14
    endloop
  endfacet
  facet normal -1 0 0
    outer loop
      vertex 23 -14.2775 -19
      vertex 23 -11.2655 -14
      vertex 23 -7.41024 -15.7978
    endloop
  endfacet
  facet normal -1 -0 0
    outer loop
      vertex 23 -11.2655 -14
      vertex 23 -14.2775 -19
      vertex 23 -40 -14
    endloop
  endfacet
  facet normal 0 -0.422618 -0.906308
    outer loop
      vertex 23 -40 -14
      vertex 25 -2.5 -31.4865
      vertex 25 -40 -14
    endloop
  endfacet
  facet normal -0 -0.422618 -0.906308
    outer loop
      vertex 25 -2.5 -31.4865
      vertex 23 -40 -14
      vertex 23 -2.5 -31.4865
    endloop
  endfacet
  facet normal -1 0 0
    outer loop
      vertex 25 -40 -14
      vertex 25 -2.5 -31.4865
      vertex 25 0 -32.6523
    endloop
  endfacet
  facet normal 0 -0.422618 0.906308
    outer loop
      vertex 21 -2.5 29.4245
      vertex 23 -22.2773 20.2022
      vertex 23 -2.5 29.4245
    endloop
  endfacet
  facet normal 0 -0.422618 0.906308
    outer loop
      vertex 23 -22.2773 20.2022
      vertex 21 -2.5 29.4245
      vertex 21 -22.2773 20.2022
    endloop
  endfacet
  facet normal 0 -0.422618 -0.906308
    outer loop
      vertex 21 -22.2773 20.2022
      vertex 23 -9.47672 14.2332
      vertex 23 -22.2773 20.2022
    endloop
  endfacet
  facet normal -0 -0.422618 -0.906308
    outer loop
      vertex 23 -9.47672 14.2332
      vertex 21 -22.2773 20.2022
      vertex 21 -9.47672 14.2332
    endloop
  endfacet
  facet normal -1 0 0
    outer loop
      vertex 21 -7.41024 -15.7978
      vertex 21 -10.6212 -5.29507
      vertex 21 -9.47672 14.2332
    endloop
  endfacet
  facet normal -1 0 -0
    outer loop
      vertex 21 -10.6212 -5.29507
      vertex 21 -7.41024 -15.7978
      vertex 21 -20.2773 -9.79776
    endloop
  endfacet
  facet normal -1 0 0
    outer loop
      vertex 21 -2.5 -30.0874
      vertex 21 -7.41024 -15.7978
      vertex 21 -2.5 29.4245
    endloop
  endfacet
  facet normal -1 0 -0
    outer loop
      vertex 21 -7.41024 -15.7978
      vertex 21 -2.5 -30.0874
      vertex 21 -20.2773 -21.7978
    endloop
  endfacet
  facet normal -1 0 0
    outer loop
      vertex 21 -9.47672 14.2332
      vertex 21 -2.5 29.4245
      vertex 21 -7.41024 -15.7978
    endloop
  endfacet
  facet normal -1 0 0
    outer loop
      vertex 21 -2.5 29.4245
      vertex 21 -9.47672 14.2332
      vertex 21 -22.2773 20.2022
    endloop
  endfacet
  facet normal -1 0 0
    outer loop
      vertex 21 -9.47672 14.2332
      vertex 21 -10.6212 -5.29507
      vertex 21 -30.9883 4.20224
    endloop
  endfacet
  facet normal 0 -0.422562 0.906334
    outer loop
      vertex 21 -9.47672 14.2332
      vertex 23 -9.9769 14
      vertex 23 -9.47672 14.2332
    endloop
  endfacet
  facet normal -1.74542e-05 -0.422619 0.906307
    outer loop
      vertex 23 -9.9769 14
      vertex 21 -9.47672 14.2332
      vertex 23 -20.6994 9
    endloop
  endfacet
  facet normal 3.08154e-06 -0.422616 0.906309
    outer loop
      vertex 21 -30.9883 4.20224
      vertex 23 -20.6994 9
      vertex 21 -9.47672 14.2332
    endloop
  endfacet
  facet normal 0 -0.422616 0.906309
    outer loop
      vertex 23 -20.6994 9
      vertex 21 -30.9883 4.20224
      vertex 23 -30.9883 4.20224
    endloop
  endfacet
  facet normal 0 -0.422617 -0.906309
    outer loop
      vertex 21 -30.9883 4.20224
      vertex 23 -23.8219 0.860508
      vertex 23 -30.9883 4.20224
    endloop
  endfacet
  facet normal 2.94952e-06 -0.422617 -0.906308
    outer loop
      vertex 21 -10.6212 -5.29507
      vertex 23 -23.8219 0.860508
      vertex 21 -30.9883 4.20224
    endloop
  endfacet
  facet normal 0 -0.422618 -0.906308
    outer loop
      vertex 23 -23.8219 0.860508
      vertex 21 -10.6212 -5.29507
      vertex 23 -10.6212 -5.29507
    endloop
  endfacet
  facet normal 0 -0.422616 0.906309
    outer loop
      vertex 21 -10.6212 -5.29507
      vertex 23 -20.2773 -9.79776
      vertex 23 -10.6212 -5.29507
    endloop
  endfacet
  facet normal 0 -0.422616 0.906309
    outer loop
      vertex 23 -20.2773 -9.79776
      vertex 21 -10.6212 -5.29507
      vertex 21 -20.2773 -9.79776
    endloop
  endfacet
  facet normal 0 -0.422616 -0.906309
    outer loop
      vertex 21 -20.2773 -9.79776
      vertex 23 -11.2655 -14
      vertex 23 -20.2773 -9.79776
    endloop
  endfacet
  facet normal 2.41687e-05 -0.42262 -0.906307
    outer loop
      vertex 21 -7.41024 -15.7978
      vertex 23 -11.2655 -14
      vertex 21 -20.2773 -9.79776
    endloop
  endfacet
  facet normal 0 -0.42263 -0.906302
    outer loop
      vertex 23 -11.2655 -14
      vertex 21 -7.41024 -15.7978
      vertex 23 -7.41024 -15.7978
    endloop
  endfacet
  facet normal 0 -0.422612 0.906311
    outer loop
      vertex 21 -7.41024 -15.7978
      vertex 23 -14.2775 -19
      vertex 23 -7.41024 -15.7978
    endloop
  endfacet
  facet normal -2.32605e-05 -0.422618 0.906308
    outer loop
      vertex 21 -20.2773 -21.7978
      vertex 23 -14.2775 -19
      vertex 21 -7.41024 -15.7978
    endloop
  endfacet
  facet normal 0 -0.422624 0.906305
    outer loop
      vertex 23 -14.2775 -19
      vertex 21 -20.2773 -21.7978
      vertex 23 -20.2773 -21.7978
    endloop
  endfacet
  facet normal 0 -0.422614 -0.90631
    outer loop
      vertex 21 -20.2773 -21.7978
      vertex 23 -2.5 -30.0874
      vertex 23 -20.2773 -21.7978
    endloop
  endfacet
  facet normal -0 -0.422614 -0.90631
    outer loop
      vertex 23 -2.5 -30.0874
      vertex 21 -20.2773 -21.7978
      vertex 21 -2.5 -30.0874
    endloop
  endfacet
  facet normal -1 0 0
    outer loop
      vertex -5 -2.5 -33.5
      vertex -5 2.5 33.5
      vertex -5 2.5 -33.5
    endloop
  endfacet
  facet normal -1 -0 0
    outer loop
      vertex -5 2.5 33.5
      vertex -5 -2.5 -33.5
      vertex -5 -2.5 33.5
    endloop
  endfacet
  facet normal -0 0 1
    outer loop
      vertex -5 2.5 33.5
      vertex 25 -2.5 33.5
      vertex 25 2.5 33.5
    endloop
  endfacet
  facet normal 0 0 1
    outer loop
      vertex 25 -2.5 33.5
      vertex -5 2.5 33.5
      vertex -5 -2.5 33.5
    endloop
  endfacet
  facet normal 0 1 0
    outer loop
      vertex 25 2.5 -23
      vertex 25 2.5 -33.5
      vertex 9.5 2.5 -23
    endloop
  endfacet
  facet normal 0 1 0
    outer loop
      vertex 13.5 2.5 -13
      vertex 25 2.5 -5
      vertex 25 2.5 -13
    endloop
  endfacet
  facet normal 0 1 0
    outer loop
      vertex 13.5 2.5 23
      vertex 25 2.5 33.5
      vertex 24.98 2.5 23
    endloop
  endfacet
  facet normal 0 1 0
    outer loop
      vertex 25 2.5 33.5
      vertex 24.98 2.5 13
      vertex 24.98 2.5 23
    endloop
  endfacet
  facet normal 0 1 0
    outer loop
      vertex 13.5 2.5 5
      vertex 24.98 2.5 13
      vertex 25 2.5 5
    endloop
  endfacet
  facet normal 0 1 -0
    outer loop
      vertex 25 2.5 5
      vertex 24.98 2.5 13
      vertex 25 2.5 33.5
    endloop
  endfacet
  facet normal 0 1 0
    outer loop
      vertex 9.5 2.5 23
      vertex 25 2.5 33.5
      vertex 13.5 2.5 23
    endloop
  endfacet
  facet normal 0 1 0
    outer loop
      vertex 25 2.5 33.5
      vertex 9.5 2.5 23
      vertex -5 2.5 33.5
    endloop
  endfacet
  facet normal 0 1 -0
    outer loop
      vertex 9.5 2.5 13
      vertex -5 2.5 33.5
      vertex 9.5 2.5 23
    endloop
  endfacet
  facet normal 0 1 0
    outer loop
      vertex 24.98 2.5 13
      vertex 13.5 2.5 5
      vertex 9.5 2.5 13
    endloop
  endfacet
  facet normal 0 1 0
    outer loop
      vertex 9.5 2.5 5
      vertex 9.5 2.5 13
      vertex 13.5 2.5 5
    endloop
  endfacet
  facet normal 0 1 0
    outer loop
      vertex 9.5 2.5 13
      vertex 9.5 2.5 5
      vertex -5 2.5 33.5
    endloop
  endfacet
  facet normal 0 1 -0
    outer loop
      vertex 9.5 2.5 -5
      vertex -5 2.5 33.5
      vertex 9.5 2.5 5
    endloop
  endfacet
  facet normal 0 1 0
    outer loop
      vertex 25 2.5 -5
      vertex 13.5 2.5 -13
      vertex 9.5 2.5 -5
    endloop
  endfacet
  facet normal 0 1 0
    outer loop
      vertex 13.5 2.5 -13
      vertex 9.5 2.5 -13
      vertex 9.5 2.5 -5
    endloop
  endfacet
  facet normal 0 1 0
    outer loop
      vertex -5 2.5 -33.5
      vertex 9.5 2.5 -5
      vertex 9.5 2.5 -13
    endloop
  endfacet
  facet normal 0 1 0
    outer loop
      vertex -5 2.5 -33.5
      vertex 9.5 2.5 -13
      vertex 9.5 2.5 -23
    endloop
  endfacet
  facet normal 0 1 0
    outer loop
      vertex 9.5 2.5 -5
      vertex -5 2.5 -33.5
      vertex -5 2.5 33.5
    endloop
  endfacet
  facet normal 0 1 0
    outer loop
      vertex -5 2.5 -33.5
      vertex 9.5 2.5 -23
      vertex 25 2.5 -33.5
    endloop
  endfacet
  facet normal 0 0 -1
    outer loop
      vertex -5 -2.5 -33.5
      vertex 25 2.5 -33.5
      vertex 25 -2.5 -33.5
    endloop
  endfacet
  facet normal -0 0 -1
    outer loop
      vertex 25 2.5 -33.5
      vertex -5 -2.5 -33.5
      vertex -5 2.5 -33.5
    endloop
  endfacet
  facet normal 0 -1 0
    outer loop
      vertex -5 -2.5 33.5
      vertex 23 -2.5 31.4865
      vertex 25 -2.5 33.5
    endloop
  endfacet
  facet normal 0 -1 0
    outer loop
      vertex -5 -2.5 33.5
      vertex 21 -2.5 29.4245
      vertex 23 -2.5 31.4865
    endloop
  endfacet
  facet normal 0 -1 0
    outer loop
      vertex -5 -2.5 -33.5
      vertex 21 -2.5 29.4245
      vertex -5 -2.5 33.5
    endloop
  endfacet
  facet normal 0 -1 0
    outer loop
      vertex 21 -2.5 -30.0874
      vertex 23 -2.5 -31.4865
      vertex 23 -2.5 -30.0874
    endloop
  endfacet
  facet normal 0 -1 -0
    outer loop
      vertex 21 -2.5 29.4245
      vertex -5 -2.5 -33.5
      vertex 21 -2.5 -30.0874
    endloop
  endfacet
  facet normal 0 -1 0
    outer loop
      vertex 25 -2.5 -33.5
      vertex 21 -2.5 -30.0874
      vertex -5 -2.5 -33.5
    endloop
  endfacet
  facet normal 0 -1 0
    outer loop
      vertex 21 -2.5 -30.0874
      vertex 25 -2.5 -33.5
      vertex 23 -2.5 -31.4865
    endloop
  endfacet
  facet normal 0 -1 0
    outer loop
      vertex 23 -2.5 -31.4865
      vertex 25 -2.5 -33.5
      vertex 25 -2.5 -31.4865
    endloop
  endfacet
  facet normal 0 -1 -0
    outer loop
      vertex 25 -2.5 33.5
      vertex 23 -2.5 31.4865
      vertex 25 -2.5 31.4865
    endloop
  endfacet
  facet normal 0 -1 -0
    outer loop
      vertex 23 -2.5 31.4865
      vertex 21 -2.5 29.4245
      vertex 23 -2.5 29.4245
    endloop
  endfacet
  facet normal 0 0 0
    outer loop
      vertex 23 -2.5 -19
      vertex 23 -2.5 -30.0874
      vertex 23 -2.5 -31.4865
    endloop
  endfacet
endsolid OpenSCAD_Model
